<svg width="36" height="31" viewBox="0 0 36 31" fill="none" xmlns="http://www.w3.org/2000/svg">
<path d="M14.3366 6.38858C14.3366 8.96886 12.2909 11.0267 9.80886 11.0267C7.32681 11.0267 5.28113 8.96886 5.28113 6.38858C5.28113 3.8083 7.32681 1.75049 9.80886 1.75049C12.2909 1.75049 14.3366 3.8083 14.3366 6.38858Z" fill="#56504C" stroke="#FF6D65" stroke-width="2"/>
<path d="M18.1005 20.4839C18.1005 15.8131 14.3882 12.0267 9.80893 12.0267C5.22961 12.0267 1.51733 15.8131 1.51733 20.4839" stroke="#FF6D65" stroke-width="2"/>
<path d="M30.9197 6.38858C30.9197 8.96886 28.874 11.0267 26.392 11.0267C23.9099 11.0267 21.8643 8.96886 21.8643 6.38858C21.8643 3.8083 23.9099 1.75049 26.392 1.75049C28.874 1.75049 30.9197 3.8083 30.9197 6.38858Z" fill="#56504C" stroke="#FF6D65" stroke-width="2"/>
<path d="M34.6836 20.4839C34.6836 15.8131 30.9714 12.0267 26.3921 12.0267C21.8127 12.0267 18.1005 15.8131 18.1005 20.4839" stroke="#FF6D65" stroke-width="2"/>
<path d="M22.6282 16.2552C22.6282 18.8354 20.5825 20.8933 18.1005 20.8933C15.6184 20.8933 13.5728 18.8354 13.5728 16.2552C13.5728 13.6749 15.6184 11.6171 18.1005 11.6171C20.5825 11.6171 22.6282 13.6749 22.6282 16.2552Z" fill="#56504C" stroke="#FF6D65" stroke-width="2"/>
<path d="M26.3921 30.3505C26.3921 25.6797 22.6799 21.8933 18.1006 21.8933C13.5212 21.8933 9.80896 25.6797 9.80896 30.3505" stroke="#FF6D65" stroke-width="2"/>
</svg>
