<svg width="28" height="30" viewBox="0 0 28 30" fill="none" xmlns="http://www.w3.org/2000/svg">
<path d="M3 9.21154H25C26.2426 9.21154 27.25 10.2189 27.25 11.4615V22.272C27.25 23.5147 26.2426 24.522 25 24.522H8.7064C8.02638 24.522 7.35916 24.707 6.77615 25.057L1.12868 28.4476C0.962053 28.5476 0.75 28.4276 0.75 28.2332V25.272V11.4615C0.75 10.2189 1.75736 9.21154 3 9.21154Z" stroke="#FF6D65" stroke-width="1.5"/>
<path d="M18.375 16.5386C18.375 18.769 16.4162 20.577 14 20.577C11.5838 20.577 9.625 18.769 9.625 16.5386" stroke="#FF6D65" stroke-width="1.5"/>
<path d="M14 9.26923V6.03846" stroke="#FF6D65" stroke-width="1.5"/>
<path d="M14 5.98077C15.3231 5.98077 16.5 4.97714 16.5 3.61538C16.5 2.25363 15.3231 1.25 14 1.25C12.6769 1.25 11.5 2.25363 11.5 3.61538C11.5 4.97714 12.6769 5.98077 14 5.98077Z" stroke="#FF6D65" stroke-width="1.5"/>
</svg>
