<svg width="28" height="28" viewBox="0 0 28 28" fill="none" xmlns="http://www.w3.org/2000/svg">
<path d="M5.36107 14.0659H5.10387L4.9008 14.2238L1.15342 17.1365C0.989197 17.2641 0.75 17.1471 0.75 16.9391V14.8159V3C0.75 1.75736 1.75736 0.75 3 0.75H16.0616C17.3042 0.75 18.3116 1.75736 18.3116 3V11.8159C18.3116 13.0586 17.3042 14.0659 16.0616 14.0659H5.36107Z" stroke="#FF6D65" stroke-width="1.5"/>
<path d="M22.636 23.083H22.8932L23.0963 23.2408L26.8436 26.1535C27.0079 26.2812 27.2471 26.1641 27.2471 25.9561V23.833V12.017C27.2471 10.7744 26.2397 9.76704 24.9971 9.76704H11.9355C10.6928 9.76704 9.68549 10.7744 9.68549 12.017V20.833C9.68549 22.0756 10.6929 23.083 11.9355 23.083H22.636Z" fill="white" stroke="#FF6D65" stroke-width="1.5"/>
<path d="M13.5021 14.2371H23.0329" stroke="#FF6D65" stroke-width="1.5"/>
<path d="M13.502 18.0338H19.0616" stroke="#FF6D65" stroke-width="1.5"/>
</svg>
