<svg width="329" height="492" viewBox="0 0 329 492" fill="none" xmlns="http://www.w3.org/2000/svg">
<path d="M82.75 0.999999C37.6007 1 1 37.6007 1 82.75V82.75C1 127.899 37.6007 164.5 82.75 164.5L164.5 164.5L164.5 82.75C164.5 37.6007 127.899 0.999998 82.75 0.999999V0.999999Z" stroke="#FF6D65"/>
<path d="M246.25 328C291.399 328 328 291.399 328 246.25V246.25C328 201.101 291.399 164.5 246.25 164.5L164.5 164.5L164.5 246.25C164.5 291.399 201.101 328 246.25 328V328Z" stroke="#FF6D65"/>
<path d="M328 409.75C328 364.601 291.399 328 246.25 328V328C201.101 328 164.5 364.601 164.5 409.75L164.5 491.5L246.25 491.5C291.399 491.5 328 454.899 328 409.75V409.75Z" stroke="#FF6D65"/>
<path d="M82.75 491.5C37.6007 491.5 1 454.899 1 409.75V409.75C1.00001 364.601 37.6007 328 82.75 328L164.5 328L164.5 409.75C164.5 454.899 127.899 491.5 82.75 491.5V491.5Z" stroke="#FF6D65"/>
<path d="M1 246.25C1 201.101 37.6007 164.5 82.75 164.5V164.5C127.899 164.5 164.5 201.101 164.5 246.25V328H82.75C37.6007 328 1 291.399 1 246.25V246.25Z" stroke="#FF6D65"/>
<path d="M42.3684 76.888H41.2884L38.7909 84.664L36.2934 76.888H35.2134L38.3724 86.5H39.2094L42.3684 76.888ZM45.2965 86.5V76.888H44.2705V86.5H45.2965ZM46.6195 73.891H45.4585L44.2705 75.9565H45.1615L46.6195 73.891ZM55.1546 81.586C55.1546 80.2495 55.2086 78.778 54.2096 77.779C53.6291 77.1985 52.7786 76.888 51.7796 76.888H48.4856V86.5H51.7796C52.7786 86.5 53.6291 86.1895 54.2096 85.609C55.2086 84.61 55.1546 82.9225 55.1546 81.586ZM54.1286 81.586C54.1286 82.7605 54.1556 84.1915 53.4941 84.88C52.9946 85.393 52.3466 85.582 51.6041 85.582H49.5116V77.806H51.6041C52.3466 77.806 52.9946 77.995 53.4941 78.508C54.1556 79.1965 54.1286 80.4115 54.1286 81.586ZM63.9411 86.5V85.582H59.0001V82.1125H63.2121V81.1945H59.0001V77.806H63.9411V76.888H57.9741V86.5H63.9411ZM72.8323 81.694C72.8323 79.6555 72.8323 78.7105 71.9278 77.806C71.2798 77.158 70.4293 76.807 69.4708 76.807C68.5123 76.807 67.6618 77.158 67.0138 77.806C66.1093 78.7105 66.1093 79.6555 66.1093 81.694C66.1093 83.7325 66.1093 84.6775 67.0138 85.582C67.6618 86.23 68.5123 86.581 69.4708 86.581C70.4293 86.581 71.2798 86.23 71.9278 85.582C72.8323 84.6775 72.8323 83.7325 72.8323 81.694ZM71.8063 81.694C71.8063 83.7055 71.7388 84.3535 71.1313 84.9745C70.7128 85.4065 70.1053 85.663 69.4708 85.663C68.8363 85.663 68.2288 85.4065 67.8103 84.9745C67.2028 84.3535 67.1353 83.7055 67.1353 81.694C67.1353 79.6825 67.2028 79.0345 67.8103 78.4135C68.2288 77.9815 68.8363 77.725 69.4708 77.725C70.1053 77.725 70.7128 77.9815 71.1313 78.4135C71.7388 79.0345 71.8063 79.6825 71.8063 81.694ZM81.4506 83.854C81.4506 83.0575 81.1671 82.396 80.6406 81.9505C80.2356 81.5995 79.7901 81.4105 78.8856 81.2755L77.8326 81.1135C77.3331 81.0325 76.8336 80.8435 76.5366 80.587C76.2396 80.3305 76.1046 79.9525 76.1046 79.48C76.1046 78.4135 76.8471 77.698 78.1296 77.698C79.1421 77.698 79.7766 77.9815 80.3706 78.5215L81.0321 77.86C80.2086 77.1175 79.3986 76.807 78.1701 76.807C76.2666 76.807 75.0921 77.887 75.0921 79.5205C75.0921 80.29 75.3351 80.884 75.8211 81.316C76.2396 81.6805 76.8336 81.9235 77.5896 82.045L78.7101 82.2205C79.4121 82.3285 79.6551 82.4095 79.9656 82.6795C80.2761 82.9495 80.4246 83.3815 80.4246 83.881C80.4246 85.0015 79.5606 85.663 78.1566 85.663C77.0766 85.663 76.3341 85.4065 75.5376 84.61L74.8356 85.312C75.7401 86.2165 76.6851 86.581 78.1296 86.581C80.1276 86.581 81.4506 85.5415 81.4506 83.854ZM84.9861 87.3775V85.312H83.7981V88.444L84.9861 87.3775ZM97.699 77.806V76.888H91.732V86.5H92.758V82.261H96.97V81.343H92.758V77.806H97.699ZM106.063 81.694C106.063 79.6555 106.063 78.7105 105.158 77.806C104.51 77.158 103.66 76.807 102.701 76.807C101.743 76.807 100.892 77.158 100.244 77.806C99.3399 78.7105 99.3399 79.6555 99.3399 81.694C99.3399 83.7325 99.3399 84.6775 100.244 85.582C100.892 86.23 101.743 86.581 102.701 86.581C103.66 86.581 104.51 86.23 105.158 85.582C106.063 84.6775 106.063 83.7325 106.063 81.694ZM105.037 81.694C105.037 83.7055 104.969 84.3535 104.362 84.9745C103.943 85.4065 103.336 85.663 102.701 85.663C102.067 85.663 101.459 85.4065 101.041 84.9745C100.433 84.3535 100.366 83.7055 100.366 81.694C100.366 79.6825 100.433 79.0345 101.041 78.4135C101.459 77.9815 102.067 77.725 102.701 77.725C103.336 77.725 103.943 77.9815 104.362 78.4135C104.969 79.0345 105.037 79.6825 105.037 81.694ZM114.228 77.806V76.888H107.64V77.806H110.421V86.5H111.447V77.806H114.228ZM122.522 81.694C122.522 79.6555 122.522 78.7105 121.617 77.806C120.969 77.158 120.119 76.807 119.16 76.807C118.202 76.807 117.351 77.158 116.703 77.806C115.799 78.7105 115.799 79.6555 115.799 81.694C115.799 83.7325 115.799 84.6775 116.703 85.582C117.351 86.23 118.202 86.581 119.16 86.581C120.119 86.581 120.969 86.23 121.617 85.582C122.522 84.6775 122.522 83.7325 122.522 81.694ZM121.496 81.694C121.496 83.7055 121.428 84.3535 120.821 84.9745C120.402 85.4065 119.795 85.663 119.16 85.663C118.526 85.663 117.918 85.4065 117.5 84.9745C116.892 84.3535 116.825 83.7055 116.825 81.694C116.825 79.6825 116.892 79.0345 117.5 78.4135C117.918 77.9815 118.526 77.725 119.16 77.725C119.795 77.725 120.402 77.9815 120.821 78.4135C121.428 79.0345 121.496 79.6825 121.496 81.694ZM131.14 83.854C131.14 83.0575 130.857 82.396 130.33 81.9505C129.925 81.5995 129.48 81.4105 128.575 81.2755L127.522 81.1135C127.023 81.0325 126.523 80.8435 126.226 80.587C125.929 80.3305 125.794 79.9525 125.794 79.48C125.794 78.4135 126.537 77.698 127.819 77.698C128.832 77.698 129.466 77.9815 130.06 78.5215L130.722 77.86C129.898 77.1175 129.088 76.807 127.86 76.807C125.956 76.807 124.782 77.887 124.782 79.5205C124.782 80.29 125.025 80.884 125.511 81.316C125.929 81.6805 126.523 81.9235 127.279 82.045L128.4 82.2205C129.102 82.3285 129.345 82.4095 129.655 82.6795C129.966 82.9495 130.114 83.3815 130.114 83.881C130.114 85.0015 129.25 85.663 127.846 85.663C126.766 85.663 126.024 85.4065 125.227 84.61L124.525 85.312C125.43 86.2165 126.375 86.581 127.819 86.581C129.817 86.581 131.14 85.5415 131.14 83.854ZM60.1724 105.5V104.582H55.2314V101.112H59.4434V100.194H55.2314V96.806H60.1724V95.888H54.2054V105.5H60.1724ZM73.168 105.5L69.6445 95.888H68.7805L65.2435 105.5H66.337L67.1065 103.326H71.305L72.0745 105.5H73.168ZM71.008 102.435H67.417L69.226 97.3595L71.008 102.435ZM70.846 92.891H69.685L68.497 94.9565H69.388L70.846 92.891ZM81.7044 102.327V95.888H80.6784V102.246C80.6784 103.704 79.7469 104.663 78.3429 104.663C76.9389 104.663 76.0209 103.704 76.0209 102.246V95.888H74.9949V102.327C74.9949 104.244 76.3989 105.581 78.3429 105.581C80.2869 105.581 81.7044 104.244 81.7044 102.327ZM91.4192 100.586C91.4192 99.2495 91.4732 97.778 90.4742 96.779C89.8937 96.1985 89.0432 95.888 88.0442 95.888H84.7502V105.5H88.0442C89.0432 105.5 89.8937 105.189 90.4742 104.609C91.4732 103.61 91.4192 101.922 91.4192 100.586ZM90.3932 100.586C90.3932 101.76 90.4202 103.191 89.7587 103.88C89.2592 104.393 88.6112 104.582 87.8687 104.582H85.7762V96.806H87.8687C88.6112 96.806 89.2592 96.995 89.7587 97.508C90.4202 98.1965 90.3932 99.4115 90.3932 100.586ZM95.2647 105.5V95.888H94.2387V105.5H95.2647ZM104.812 100.694C104.812 98.6555 104.812 97.7105 103.908 96.806C103.26 96.158 102.409 95.807 101.451 95.807C100.492 95.807 99.6418 96.158 98.9938 96.806C98.0893 97.7105 98.0893 98.6555 98.0893 100.694C98.0893 102.732 98.0893 103.677 98.9938 104.582C99.6418 105.23 100.492 105.581 101.451 105.581C102.409 105.581 103.26 105.23 103.908 104.582C104.812 103.677 104.812 102.732 104.812 100.694ZM103.786 100.694C103.786 102.705 103.719 103.353 103.111 103.974C102.693 104.406 102.085 104.663 101.451 104.663C100.816 104.663 100.209 104.406 99.7903 103.974C99.1828 103.353 99.1153 102.705 99.1153 100.694C99.1153 98.6825 99.1828 98.0345 99.7903 97.4135C100.209 96.9815 100.816 96.725 101.451 96.725C102.085 96.725 102.693 96.9815 103.111 97.4135C103.719 98.0345 103.786 98.6825 103.786 100.694ZM113.431 102.854C113.431 102.057 113.147 101.396 112.621 100.95C112.216 100.599 111.77 100.41 110.866 100.275L109.813 100.113C109.313 100.032 108.814 99.8435 108.517 99.587C108.22 99.3305 108.085 98.9525 108.085 98.48C108.085 97.4135 108.827 96.698 110.11 96.698C111.122 96.698 111.757 96.9815 112.351 97.5215L113.012 96.86C112.189 96.1175 111.379 95.807 110.15 95.807C108.247 95.807 107.072 96.887 107.072 98.5205C107.072 99.29 107.315 99.884 107.801 100.316C108.22 100.68 108.814 100.923 109.57 101.045L110.69 101.22C111.392 101.328 111.635 101.409 111.946 101.679C112.256 101.949 112.405 102.381 112.405 102.881C112.405 104.001 111.541 104.663 110.137 104.663C109.057 104.663 108.314 104.406 107.518 103.61L106.816 104.312C107.72 105.216 108.665 105.581 110.11 105.581C112.108 105.581 113.431 104.541 113.431 102.854Z" fill="white"/>
<path d="M24.398 235.086C24.398 233.749 24.452 232.278 23.453 231.279C22.8725 230.698 22.022 230.388 21.023 230.388H17.729V240H21.023C22.022 240 22.8725 239.689 23.453 239.109C24.452 238.11 24.398 236.422 24.398 235.086ZM23.372 235.086C23.372 236.26 23.399 237.691 22.7375 238.38C22.238 238.893 21.59 239.082 20.8475 239.082H18.755V231.306H20.8475C21.59 231.306 22.238 231.495 22.7375 232.008C23.399 232.696 23.372 233.911 23.372 235.086ZM33.7816 240L30.2581 230.388H29.3941L25.8571 240H26.9506L27.7201 237.826H31.9186L32.6881 240H33.7816ZM31.6216 236.935H28.0306L29.8396 231.859L31.6216 236.935ZM42.4126 235.086C42.4126 233.749 42.4666 232.278 41.4676 231.279C40.8871 230.698 40.0366 230.388 39.0376 230.388H35.7436V240H39.0376C40.0366 240 40.8871 239.689 41.4676 239.109C42.4666 238.11 42.4126 236.422 42.4126 235.086ZM41.3866 235.086C41.3866 236.26 41.4136 237.691 40.7521 238.38C40.2526 238.893 39.6046 239.082 38.8621 239.082H36.7696V231.306H38.8621C39.6046 231.306 40.2526 231.495 40.7521 232.008C41.4136 232.696 41.3866 233.911 41.3866 235.086ZM51.5906 235.194C51.5906 233.155 51.5906 232.21 50.6861 231.306C50.0381 230.658 49.1876 230.307 48.2291 230.307C47.2706 230.307 46.4201 230.658 45.7721 231.306C44.8676 232.21 44.8676 233.155 44.8676 235.194C44.8676 237.232 44.8676 238.177 45.7721 239.082C46.4201 239.73 47.2706 240.081 48.2291 240.081C49.1876 240.081 50.0381 239.73 50.6861 239.082C51.5906 238.177 51.5906 237.232 51.5906 235.194ZM50.5646 235.194C50.5646 237.205 50.4971 237.853 49.8896 238.474C49.4711 238.906 48.8636 239.163 48.2291 239.163C47.5946 239.163 46.9871 238.906 46.5686 238.474C45.9611 237.853 45.8936 237.205 45.8936 235.194C45.8936 233.183 45.9611 232.534 46.5686 231.913C46.9871 231.481 47.5946 231.225 48.2291 231.225C48.8636 231.225 49.4711 231.481 49.8896 231.913C50.4971 232.534 50.5646 233.183 50.5646 235.194ZM60.2088 237.354C60.2088 236.557 59.9253 235.896 59.3988 235.45C58.9938 235.099 58.5483 234.91 57.6438 234.775L56.5908 234.613C56.0913 234.532 55.5918 234.343 55.2948 234.087C54.9978 233.83 54.8628 233.452 54.8628 232.98C54.8628 231.913 55.6053 231.198 56.8878 231.198C57.9003 231.198 58.5348 231.481 59.1288 232.021L59.7903 231.36C58.9668 230.617 58.1568 230.307 56.9283 230.307C55.0248 230.307 53.8503 231.387 53.8503 233.02C53.8503 233.79 54.0933 234.384 54.5793 234.816C54.9978 235.18 55.5918 235.423 56.3478 235.545L57.4683 235.72C58.1703 235.828 58.4133 235.909 58.7238 236.179C59.0343 236.449 59.1828 236.881 59.1828 237.381C59.1828 238.501 58.3188 239.163 56.9148 239.163C55.8348 239.163 55.0923 238.906 54.2958 238.11L53.5938 238.812C54.4983 239.716 55.4433 240.081 56.8878 240.081C58.8858 240.081 60.2088 239.041 60.2088 237.354ZM67.5517 240V230.388H66.5257V240H67.5517ZM77.8417 240V230.388H76.8157V238.069L71.7127 230.388H70.7407V240H71.7667V232.291L76.8697 240H77.8417ZM86.6359 231.306V230.388H80.0479V231.306H82.8289V240H83.8549V231.306H86.6359ZM94.8014 240V239.082H89.8604V235.612H94.0724V234.694H89.8604V231.306H94.8014V230.388H88.8344V240H94.8014ZM103.72 236.49V234.964H100.331V235.869H102.694V236.598C102.694 237.34 102.545 237.867 102.154 238.339C101.708 238.879 101.033 239.163 100.331 239.163C99.6967 239.163 99.0892 238.92 98.6707 238.488C98.0632 237.867 97.9957 237.205 97.9957 235.194C97.9957 233.183 98.0632 232.534 98.6707 231.913C99.0892 231.481 99.6967 231.225 100.331 231.225C101.533 231.225 102.397 231.967 102.667 233.183H103.693C103.409 231.495 102.167 230.307 100.331 230.307C99.3727 230.307 98.5222 230.658 97.8742 231.306C96.9697 232.21 96.9697 233.155 96.9697 235.194C96.9697 237.232 96.9697 238.177 97.8742 239.082C98.5222 239.73 99.3862 240.081 100.331 240.081C101.317 240.081 102.221 239.703 102.896 238.974C103.49 238.339 103.72 237.597 103.72 236.49ZM113.242 240L110.961 235.639C112.203 235.383 113.053 234.465 113.053 233.061C113.053 231.4 111.879 230.388 110.205 230.388H106.519V240H107.545V235.734H109.854L112.041 240H113.242ZM112.027 233.074C112.027 234.249 111.231 234.829 110.11 234.829H107.545V231.306H110.11C111.231 231.306 112.027 231.9 112.027 233.074ZM122.48 240L118.956 230.388H118.092L114.555 240H115.649L116.418 237.826H120.617L121.386 240H122.48ZM120.32 236.935H116.729L118.538 231.859L120.32 236.935ZM131.111 235.086C131.111 233.749 131.165 232.278 130.166 231.279C129.585 230.698 128.735 230.388 127.736 230.388H124.442V240H127.736C128.735 240 129.585 239.689 130.166 239.109C131.165 238.11 131.111 236.422 131.111 235.086ZM130.085 235.086C130.085 236.26 130.112 237.691 129.45 238.38C128.951 238.893 128.303 239.082 127.56 239.082H125.468V231.306H127.56C128.303 231.306 128.951 231.495 129.45 232.008C130.112 232.696 130.085 233.911 130.085 235.086ZM140.289 235.194C140.289 233.155 140.289 232.21 139.384 231.306C138.736 230.658 137.886 230.307 136.927 230.307C135.969 230.307 135.118 230.658 134.47 231.306C133.566 232.21 133.566 233.155 133.566 235.194C133.566 237.232 133.566 238.177 134.47 239.082C135.118 239.73 135.969 240.081 136.927 240.081C137.886 240.081 138.736 239.73 139.384 239.082C140.289 238.177 140.289 237.232 140.289 235.194ZM139.263 235.194C139.263 237.205 139.195 237.853 138.588 238.474C138.169 238.906 137.562 239.163 136.927 239.163C136.293 239.163 135.685 238.906 135.267 238.474C134.659 237.853 134.592 237.205 134.592 235.194C134.592 233.183 134.659 232.534 135.267 231.913C135.685 231.481 136.293 231.225 136.927 231.225C137.562 231.225 138.169 231.481 138.588 231.913C139.195 232.534 139.263 233.183 139.263 235.194ZM148.907 237.354C148.907 236.557 148.623 235.896 148.097 235.45C147.692 235.099 147.246 234.91 146.342 234.775L145.289 234.613C144.789 234.532 144.29 234.343 143.993 234.087C143.696 233.83 143.561 233.452 143.561 232.98C143.561 231.913 144.303 231.198 145.586 231.198C146.598 231.198 147.233 231.481 147.827 232.021L148.488 231.36C147.665 230.617 146.855 230.307 145.626 230.307C143.723 230.307 142.548 231.387 142.548 233.02C142.548 233.79 142.791 234.384 143.277 234.816C143.696 235.18 144.29 235.423 145.046 235.545L146.166 235.72C146.868 235.828 147.111 235.909 147.422 236.179C147.732 236.449 147.881 236.881 147.881 237.381C147.881 238.501 147.017 239.163 145.613 239.163C144.533 239.163 143.79 238.906 142.994 238.11L142.292 238.812C143.196 239.716 144.141 240.081 145.586 240.081C147.584 240.081 148.907 239.041 148.907 237.354ZM34.5115 259L30.988 249.388H30.124L26.587 259H27.6805L28.45 256.826H32.6485L33.418 259H34.5115ZM32.3515 255.935H28.7605L30.5695 250.859L32.3515 255.935ZM31.1635 248.456L29.9755 246.391H28.8145L30.2725 248.456H31.1635ZM46.5717 256.219H45.5457C45.2892 257.393 44.4387 258.163 43.2372 258.163C42.6027 258.163 41.9952 257.92 41.5767 257.488C40.9692 256.867 40.9017 256.205 40.9017 254.194C40.9017 252.183 40.9692 251.521 41.5767 250.9C41.9952 250.468 42.6027 250.225 43.2372 250.225C44.4387 250.225 45.2622 250.994 45.5187 252.169H46.5717C46.2477 250.36 44.9652 249.307 43.2372 249.307C42.2922 249.307 41.4282 249.658 40.7802 250.306C39.8757 251.21 39.8757 252.155 39.8757 254.194C39.8757 256.232 39.8757 257.177 40.7802 258.082C41.4282 258.73 42.2922 259.081 43.2372 259.081C44.9517 259.081 46.2612 258.028 46.5717 256.219ZM55.5994 254.194C55.5994 252.155 55.5994 251.21 54.6949 250.306C54.0469 249.658 53.1964 249.307 52.2379 249.307C51.2794 249.307 50.4289 249.658 49.7809 250.306C48.8764 251.21 48.8764 252.155 48.8764 254.194C48.8764 256.232 48.8764 257.177 49.7809 258.082C50.4289 258.73 51.2794 259.081 52.2379 259.081C53.1964 259.081 54.0469 258.73 54.6949 258.082C55.5994 257.177 55.5994 256.232 55.5994 254.194ZM54.5734 254.194C54.5734 256.205 54.5059 256.853 53.8984 257.474C53.4799 257.906 52.8724 258.163 52.2379 258.163C51.6034 258.163 50.9959 257.906 50.5774 257.474C49.9699 256.853 49.9024 256.205 49.9024 254.194C49.9024 252.183 49.9699 251.534 50.5774 250.913C50.9959 250.481 51.6034 250.225 52.2379 250.225C52.8724 250.225 53.4799 250.481 53.8984 250.913C54.5059 251.534 54.5734 252.183 54.5734 254.194ZM66.6612 259V249.388H65.6352L62.5842 256.205L59.4522 249.388H58.4262V259H59.4522V251.696L62.1252 257.488H63.0027L65.6352 251.696V259H66.6612ZM76.4002 252.209C76.4002 250.481 75.1852 249.388 73.4302 249.388H69.8527V259H70.8787V255.044H73.4302C75.1852 255.044 76.4002 253.937 76.4002 252.209ZM75.3742 252.209C75.3742 253.478 74.5372 254.126 73.3357 254.126H70.8787V250.306H73.3357C74.5372 250.306 75.3742 250.94 75.3742 252.209ZM85.4841 259L83.2026 254.639C84.4446 254.383 85.2951 253.465 85.2951 252.061C85.2951 250.4 84.1206 249.388 82.4466 249.388H78.7611V259H79.7871V254.734H82.0956L84.2826 259H85.4841ZM84.2691 252.074C84.2691 253.249 83.4726 253.829 82.3521 253.829H79.7871V250.306H82.3521C83.4726 250.306 84.2691 250.9 84.2691 252.074ZM93.9925 259V258.082H89.0515V254.612H93.2635V253.694H89.0515V250.306H93.9925V249.388H88.0255V259H93.9925ZM102.492 259V258.082H97.5512V254.612H101.763V253.694H97.5512V250.306H102.492V249.388H96.5252V259H102.492ZM112.126 259V249.388H111.1V257.069L105.997 249.388H105.025V259H106.051V251.291L111.154 259H112.126ZM121.109 256.354C121.109 255.557 120.826 254.896 120.299 254.45C119.894 254.099 119.449 253.91 118.544 253.775L117.491 253.613C116.992 253.532 116.492 253.343 116.195 253.087C115.898 252.83 115.763 252.452 115.763 251.98C115.763 250.913 116.506 250.198 117.788 250.198C118.801 250.198 119.435 250.481 120.029 251.021L120.691 250.36C119.867 249.617 119.057 249.307 117.829 249.307C115.925 249.307 114.751 250.387 114.751 252.02C114.751 252.79 114.994 253.384 115.48 253.816C115.898 254.18 116.492 254.423 117.248 254.545L118.369 254.72C119.071 254.828 119.314 254.909 119.624 255.179C119.935 255.449 120.083 255.881 120.083 256.381C120.083 257.501 119.219 258.163 117.815 258.163C116.735 258.163 115.993 257.906 115.196 257.11L114.494 257.812C115.399 258.716 116.344 259.081 117.788 259.081C119.786 259.081 121.109 258.041 121.109 256.354ZM130.355 259L126.832 249.388H125.968L122.431 259H123.524L124.294 256.826H128.492L129.262 259H130.355ZM128.195 255.935H124.604L126.413 250.859L128.195 255.935ZM128.465 247.606L127.966 247.106C127.561 247.511 127.372 247.538 127.169 247.538C126.899 247.538 126.697 247.444 126.413 247.268C126.076 247.052 125.846 246.944 125.455 246.944C125.131 246.944 124.78 247.025 124.172 247.633L124.672 248.119C125.063 247.727 125.239 247.687 125.468 247.687C125.738 247.687 125.968 247.822 126.224 247.97C126.548 248.159 126.791 248.281 127.183 248.281C127.493 248.281 127.844 248.213 128.465 247.606ZM138.544 254.194C138.544 252.155 138.544 251.21 137.639 250.306C136.991 249.658 136.141 249.307 135.182 249.307C134.224 249.307 133.373 249.658 132.725 250.306C131.821 251.21 131.821 252.155 131.821 254.194C131.821 256.232 131.821 257.177 132.725 258.082C133.373 258.73 134.224 259.081 135.182 259.081C136.141 259.081 136.991 258.73 137.639 258.082C138.544 257.177 138.544 256.232 138.544 254.194ZM137.518 254.194C137.518 256.205 137.45 256.853 136.843 257.474C136.424 257.906 135.817 258.163 135.182 258.163C134.548 258.163 133.94 257.906 133.522 257.474C132.914 256.853 132.847 256.205 132.847 254.194C132.847 252.183 132.914 251.534 133.522 250.913C133.94 250.481 134.548 250.225 135.182 250.225C135.817 250.225 136.424 250.481 136.843 250.913C137.45 251.534 137.518 252.183 137.518 254.194ZM61.9779 278V268.388H60.9519V272.694H56.3889V268.388H55.3629V278H56.3889V273.612H60.9519V278H61.9779ZM71.7423 274.827V268.388H70.7163V274.746C70.7163 276.204 69.7848 277.163 68.3808 277.163C66.9768 277.163 66.0588 276.204 66.0588 274.746V268.388H65.0328V274.827C65.0328 276.744 66.4368 278.081 68.3808 278.081C70.3248 278.081 71.7423 276.744 71.7423 274.827ZM83.0231 278V268.388H81.9971L78.9461 275.205L75.8141 268.388H74.7881V278H75.8141V270.696L78.4871 276.488H79.3646L81.9971 270.696V278H83.0231ZM92.9106 278L89.3871 268.388H88.5231L84.9861 278H86.0796L86.8491 275.826H91.0476L91.8171 278H92.9106ZM90.7506 274.935H87.1596L88.9686 269.859L90.7506 274.935ZM101.974 278V268.388H100.948V276.069L95.8445 268.388H94.8725V278H95.8985V270.291L101.002 278H101.974ZM111.861 278L108.338 268.388H107.474L103.937 278H105.03L105.8 275.826H109.998L110.768 278H111.861ZM109.701 274.935H106.11L107.919 269.859L109.701 274.935Z" fill="white"/>
<path d="M35.9886 384.194C35.9886 382.155 35.9886 381.21 35.0841 380.306C34.4361 379.658 33.5856 379.307 32.6271 379.307C31.6686 379.307 30.8181 379.658 30.1701 380.306C29.2656 381.21 29.2656 382.155 29.2656 384.194C29.2656 386.232 29.2656 387.177 30.1701 388.082C30.8181 388.73 31.6686 389.081 32.6271 389.081C33.5856 389.081 34.4361 388.73 35.0841 388.082C35.9886 387.177 35.9886 386.232 35.9886 384.194ZM34.9626 384.194C34.9626 386.205 34.8951 386.853 34.2876 387.474C33.8691 387.906 33.2616 388.163 32.6271 388.163C31.9926 388.163 31.3851 387.906 30.9666 387.474C30.3591 386.853 30.2916 386.205 30.2916 384.194C30.2916 382.183 30.3591 381.534 30.9666 380.913C31.3851 380.481 31.9926 380.225 32.6271 380.225C33.2616 380.225 33.8691 380.481 34.2876 380.913C34.8951 381.534 34.9626 382.183 34.9626 384.194ZM50.8172 389V379.388H49.7912L46.7402 386.205L43.6082 379.388H42.5822V389H43.6082V381.696L46.2812 387.488H47.1587L49.7912 381.696V389H50.8172ZM60.5831 385.827V379.388H59.5571V385.746C59.5571 387.204 58.6256 388.163 57.2216 388.163C55.8176 388.163 54.8996 387.204 54.8996 385.746V379.388H53.8736V385.827C53.8736 387.744 55.2776 389.081 57.2216 389.081C59.1656 389.081 60.5831 387.744 60.5831 385.827ZM70.73 389V379.388H69.704V387.069L64.601 379.388H63.629V389H64.655V381.291L69.758 389H70.73ZM80.5907 384.086C80.5907 382.749 80.6447 381.278 79.6457 380.279C79.0652 379.698 78.2147 379.388 77.2157 379.388H73.9217V389H77.2157C78.2147 389 79.0652 388.689 79.6457 388.109C80.6447 387.11 80.5907 385.422 80.5907 384.086ZM79.5647 384.086C79.5647 385.26 79.5917 386.691 78.9302 387.38C78.4307 387.893 77.7827 388.082 77.0402 388.082H74.9477V380.306H77.0402C77.7827 380.306 78.4307 380.495 78.9302 381.008C79.5917 381.696 79.5647 382.911 79.5647 384.086ZM89.7687 384.194C89.7687 382.155 89.7687 381.21 88.8642 380.306C88.2162 379.658 87.3657 379.307 86.4072 379.307C85.4487 379.307 84.5982 379.658 83.9502 380.306C83.0457 381.21 83.0457 382.155 83.0457 384.194C83.0457 386.232 83.0457 387.177 83.9502 388.082C84.5982 388.73 85.4487 389.081 86.4072 389.081C87.3657 389.081 88.2162 388.73 88.8642 388.082C89.7687 387.177 89.7687 386.232 89.7687 384.194ZM88.7427 384.194C88.7427 386.205 88.6752 386.853 88.0677 387.474C87.6492 387.906 87.0417 388.163 86.4072 388.163C85.7727 388.163 85.1652 387.906 84.7467 387.474C84.1392 386.853 84.0717 386.205 84.0717 384.194C84.0717 382.183 84.1392 381.534 84.7467 380.913C85.1652 380.481 85.7727 380.225 86.4072 380.225C87.0417 380.225 87.6492 380.481 88.0677 380.913C88.6752 381.534 88.7427 382.183 88.7427 384.194ZM102.329 380.306V379.388H96.3623V389H97.3883V384.761H101.6V383.843H97.3883V380.306H102.329ZM105.624 389V379.388H104.598V389H105.624ZM106.947 376.391H105.786L104.598 378.456H105.489L106.947 376.391ZM114.605 386.354C114.605 385.557 114.321 384.896 113.795 384.45C113.39 384.099 112.944 383.91 112.04 383.775L110.987 383.613C110.487 383.532 109.988 383.343 109.691 383.087C109.394 382.83 109.259 382.452 109.259 381.98C109.259 380.913 110.001 380.198 111.284 380.198C112.296 380.198 112.931 380.481 113.525 381.021L114.186 380.36C113.363 379.617 112.553 379.307 111.324 379.307C109.421 379.307 108.246 380.387 108.246 382.02C108.246 382.79 108.489 383.384 108.975 383.816C109.394 384.18 109.988 384.423 110.744 384.545L111.864 384.72C112.566 384.828 112.809 384.909 113.12 385.179C113.43 385.449 113.579 385.881 113.579 386.381C113.579 387.501 112.715 388.163 111.311 388.163C110.231 388.163 109.488 387.906 108.692 387.11L107.99 387.812C108.894 388.716 109.839 389.081 111.284 389.081C113.282 389.081 114.605 388.041 114.605 386.354ZM118.181 389V379.388H117.155V389H118.181ZM127.701 386.219H126.675C126.419 387.393 125.568 388.163 124.367 388.163C123.732 388.163 123.125 387.92 122.706 387.488C122.099 386.867 122.031 386.205 122.031 384.194C122.031 382.183 122.099 381.521 122.706 380.9C123.125 380.468 123.732 380.225 124.367 380.225C125.568 380.225 126.392 380.994 126.648 382.169H127.701C127.377 380.36 126.095 379.307 124.367 379.307C123.422 379.307 122.558 379.658 121.91 380.306C121.005 381.21 121.005 382.155 121.005 384.194C121.005 386.232 121.005 387.177 121.91 388.082C122.558 388.73 123.422 389.081 124.367 389.081C126.081 389.081 127.391 388.028 127.701 386.219ZM136.729 384.194C136.729 382.155 136.729 381.21 135.825 380.306C135.177 379.658 134.326 379.307 133.368 379.307C132.409 379.307 131.559 379.658 130.911 380.306C130.006 381.21 130.006 382.155 130.006 384.194C130.006 386.232 130.006 387.177 130.911 388.082C131.559 388.73 132.409 389.081 133.368 389.081C134.326 389.081 135.177 388.73 135.825 388.082C136.729 387.177 136.729 386.232 136.729 384.194ZM135.703 384.194C135.703 386.205 135.636 386.853 135.028 387.474C134.61 387.906 134.002 388.163 133.368 388.163C132.733 388.163 132.126 387.906 131.707 387.474C131.1 386.853 131.032 386.205 131.032 384.194C131.032 382.183 131.1 381.534 131.707 380.913C132.126 380.481 132.733 380.225 133.368 380.225C134.002 380.225 134.61 380.481 135.028 380.913C135.636 381.534 135.703 382.183 135.703 384.194ZM37.6933 408V407.082H32.7523V403.612H36.9643V402.694H32.7523V399.306H37.6933V398.388H31.7263V408H37.6933ZM50.6618 403.086C50.6618 401.749 50.7158 400.278 49.7168 399.279C49.1363 398.698 48.2858 398.388 47.2868 398.388H43.9928V408H47.2868C48.2858 408 49.1363 407.689 49.7168 407.109C50.7158 406.11 50.6618 404.422 50.6618 403.086ZM49.6358 403.086C49.6358 404.26 49.6628 405.691 49.0013 406.38C48.5018 406.893 47.8538 407.082 47.1113 407.082H45.0188V399.306H47.1113C47.8538 399.306 48.5018 399.495 49.0013 400.008C49.6628 400.696 49.6358 401.911 49.6358 403.086ZM54.5073 408V398.388H53.4813V408H54.5073ZM64.0819 404.49V402.964H60.6934V403.869H63.0559V404.598C63.0559 405.34 62.9074 405.867 62.5159 406.339C62.0704 406.879 61.3954 407.163 60.6934 407.163C60.0589 407.163 59.4514 406.92 59.0329 406.488C58.4254 405.867 58.3579 405.205 58.3579 403.194C58.3579 401.183 58.4254 400.534 59.0329 399.913C59.4514 399.481 60.0589 399.225 60.6934 399.225C61.8949 399.225 62.7589 399.967 63.0289 401.183H64.0549C63.7714 399.495 62.5294 398.307 60.6934 398.307C59.7349 398.307 58.8844 398.658 58.2364 399.306C57.3319 400.21 57.3319 401.155 57.3319 403.194C57.3319 405.232 57.3319 406.177 58.2364 407.082C58.8844 407.73 59.7484 408.081 60.6934 408.081C61.6789 408.081 62.5834 407.703 63.2584 406.974C63.8524 406.339 64.0819 405.597 64.0819 404.49ZM67.9076 408V398.388H66.8816V408H67.9076ZM76.6992 399.306V398.388H70.1112V399.306H72.8922V408H73.9182V399.306H76.6992ZM84.7895 408L81.266 398.388H80.402L76.865 408H77.9585L78.728 405.826H82.9265L83.696 408H84.7895ZM82.6295 404.935H79.0385L80.8475 399.859L82.6295 404.935ZM92.6914 408V407.082H87.7774V398.388H86.7514V408H92.6914ZM104.994 405.219H103.968C103.711 406.393 102.861 407.163 101.659 407.163C101.025 407.163 100.417 406.92 99.9985 406.488C99.391 405.867 99.3235 405.205 99.3235 403.194C99.3235 401.183 99.391 400.521 99.9985 399.9C100.417 399.468 101.025 399.225 101.659 399.225C102.861 399.225 103.684 399.994 103.941 401.169H104.994C104.67 399.36 103.387 398.307 101.659 398.307C100.714 398.307 99.85 398.658 99.202 399.306C98.2975 400.21 98.2975 401.155 98.2975 403.194C98.2975 405.232 98.2975 406.177 99.202 407.082C99.85 407.73 100.714 408.081 101.659 408.081C103.374 408.081 104.683 407.028 104.994 405.219ZM114.021 403.194C114.021 401.155 114.021 400.21 113.117 399.306C112.469 398.658 111.618 398.307 110.66 398.307C109.701 398.307 108.851 398.658 108.203 399.306C107.298 400.21 107.298 401.155 107.298 403.194C107.298 405.232 107.298 406.177 108.203 407.082C108.851 407.73 109.701 408.081 110.66 408.081C111.618 408.081 112.469 407.73 113.117 407.082C114.021 406.177 114.021 405.232 114.021 403.194ZM112.995 403.194C112.995 405.205 112.928 405.853 112.32 406.474C111.902 406.906 111.294 407.163 110.66 407.163C110.025 407.163 109.418 406.906 108.999 406.474C108.392 405.853 108.324 405.205 108.324 403.194C108.324 401.183 108.392 400.534 108.999 399.913C109.418 399.481 110.025 399.225 110.66 399.225C111.294 399.225 111.902 399.481 112.32 399.913C112.928 400.534 112.995 401.183 112.995 403.194ZM125.083 408V398.388H124.057L121.006 405.205L117.874 398.388H116.848V408H117.874V400.696L120.547 406.488H121.424L124.057 400.696V408H125.083ZM134.633 403.194C134.633 401.155 134.633 400.21 133.728 399.306C133.08 398.658 132.23 398.307 131.271 398.307C130.313 398.307 129.462 398.658 128.814 399.306C127.91 400.21 127.91 401.155 127.91 403.194C127.91 405.232 127.91 406.177 128.814 407.082C129.462 407.73 130.313 408.081 131.271 408.081C132.23 408.081 133.08 407.73 133.728 407.082C134.633 406.177 134.633 405.232 134.633 403.194ZM133.607 403.194C133.607 405.205 133.539 405.853 132.932 406.474C132.513 406.906 131.906 407.163 131.271 407.163C130.637 407.163 130.029 406.906 129.611 406.474C129.003 405.853 128.936 405.205 128.936 403.194C128.936 401.183 129.003 400.534 129.611 399.913C130.029 399.481 130.637 399.225 131.271 399.225C131.906 399.225 132.513 399.481 132.932 399.913C133.539 400.534 133.607 401.183 133.607 403.194ZM52.7106 427L49.1871 417.388H48.3231L44.7861 427H45.8796L46.6491 424.826H50.8476L51.6171 427H52.7106ZM50.5506 423.935H46.9596L48.7686 418.859L50.5506 423.935ZM62.9076 427V417.388H61.8816L58.8306 424.205L55.6986 417.388H54.6726V427H55.6986V419.696L58.3716 425.488H59.2491L61.8816 419.696V427H62.9076ZM72.7006 424.34C72.7006 423.193 72.0526 422.396 71.1346 422.059C71.9446 421.762 72.5521 420.965 72.5521 419.953C72.5521 418.346 71.3911 417.388 69.7171 417.388H66.0991V427H69.8386C71.5396 427 72.7006 426.082 72.7006 424.34ZM71.6746 424.313C71.6746 425.393 70.9321 426.082 69.7441 426.082H67.1251V422.558H69.7441C70.9321 422.558 71.6746 423.233 71.6746 424.313ZM71.5261 419.966C71.5261 421.114 70.7026 421.64 69.6361 421.64H67.1251V418.306H69.6361C70.7026 418.306 71.5261 418.819 71.5261 419.966ZM76.5476 427V417.388H75.5216V427H76.5476ZM85.7037 427V426.082H80.7627V422.612H84.9747V421.694H80.7627V418.306H85.7037V417.388H79.7367V427H85.7037ZM95.3374 427V417.388H94.3114V425.069L89.2084 417.388H88.2364V427H89.2624V419.291L94.3654 427H95.3374ZM104.132 418.306V417.388H97.5436V418.306H100.325V427H101.351V418.306H104.132ZM112.297 427V426.082H107.356V422.612H111.568V421.694H107.356V418.306H112.297V417.388H106.33V427H112.297ZM120.621 424.354C120.621 423.557 120.338 422.896 119.811 422.45C119.406 422.099 118.961 421.91 118.056 421.775L117.003 421.613C116.504 421.532 116.004 421.343 115.707 421.087C115.41 420.83 115.275 420.452 115.275 419.98C115.275 418.913 116.018 418.198 117.3 418.198C118.313 418.198 118.947 418.481 119.541 419.021L120.203 418.36C119.379 417.617 118.569 417.307 117.341 417.307C115.437 417.307 114.263 418.387 114.263 420.02C114.263 420.79 114.506 421.384 114.992 421.816C115.41 422.18 116.004 422.423 116.76 422.545L117.881 422.72C118.583 422.828 118.826 422.909 119.136 423.179C119.447 423.449 119.595 423.881 119.595 424.381C119.595 425.501 118.731 426.163 117.327 426.163C116.247 426.163 115.505 425.906 114.708 425.11L114.006 425.812C114.911 426.716 115.856 427.081 117.3 427.081C119.298 427.081 120.621 426.041 120.621 424.354ZM53.9163 441.086C53.9163 439.749 53.9703 438.278 52.9713 437.279C52.3908 436.698 51.5403 436.388 50.5413 436.388H47.2473V446H50.5413C51.5403 446 52.3908 445.689 52.9713 445.109C53.9703 444.11 53.9163 442.422 53.9163 441.086ZM52.8903 441.086C52.8903 442.26 52.9173 443.691 52.2558 444.38C51.7563 444.893 51.1083 445.082 50.3658 445.082H48.2733V437.306H50.3658C51.1083 437.306 51.7563 437.495 52.2558 438.008C52.9173 438.696 52.8903 439.911 52.8903 441.086ZM62.7028 446V445.082H57.7618V441.612H61.9738V440.694H57.7618V437.306H62.7028V436.388H56.7358V446H62.7028ZM74.9693 446V445.082H70.0283V441.612H74.2403V440.694H70.0283V437.306H74.9693V436.388H69.0023V446H74.9693ZM83.2936 443.354C83.2936 442.557 83.0101 441.896 82.4836 441.45C82.0786 441.099 81.6331 440.91 80.7286 440.775L79.6756 440.613C79.1761 440.532 78.6766 440.343 78.3796 440.087C78.0826 439.83 77.9476 439.452 77.9476 438.98C77.9476 437.913 78.6901 437.198 79.9726 437.198C80.9851 437.198 81.6196 437.481 82.2136 438.021L82.8751 437.36C82.0516 436.617 81.2416 436.307 80.0131 436.307C78.1096 436.307 76.9351 437.387 76.9351 439.02C76.9351 439.79 77.1781 440.384 77.6641 440.816C78.0826 441.18 78.6766 441.423 79.4326 441.545L80.5531 441.72C81.2551 441.828 81.4981 441.909 81.8086 442.179C82.1191 442.449 82.2676 442.881 82.2676 443.381C82.2676 444.501 81.4036 445.163 79.9996 445.163C78.9196 445.163 78.1771 444.906 77.3806 444.11L76.6786 444.812C77.5831 445.716 78.5281 446.081 79.9726 446.081C81.9706 446.081 83.2936 445.041 83.2936 443.354ZM91.4461 437.306V436.388H84.8581V437.306H87.6391V446H88.6651V437.306H91.4461ZM100.219 442.827V436.388H99.1931V442.746C99.1931 444.204 98.2616 445.163 96.8576 445.163C95.4536 445.163 94.5356 444.204 94.5356 442.746V436.388H93.5096V442.827C93.5096 444.744 94.9136 446.081 96.8576 446.081C98.8016 446.081 100.219 444.744 100.219 442.827ZM109.934 441.086C109.934 439.749 109.988 438.278 108.989 437.279C108.408 436.698 107.558 436.388 106.559 436.388H103.265V446H106.559C107.558 446 108.408 445.689 108.989 445.109C109.988 444.11 109.934 442.422 109.934 441.086ZM108.908 441.086C108.908 442.26 108.935 443.691 108.273 444.38C107.774 444.893 107.126 445.082 106.383 445.082H104.291V437.306H106.383C107.126 437.306 107.774 437.495 108.273 438.008C108.935 438.696 108.908 439.911 108.908 441.086ZM119.112 441.194C119.112 439.155 119.112 438.21 118.207 437.306C117.559 436.658 116.709 436.307 115.75 436.307C114.792 436.307 113.941 436.658 113.293 437.306C112.389 438.21 112.389 439.155 112.389 441.194C112.389 443.232 112.389 444.177 113.293 445.082C113.941 445.73 114.792 446.081 115.75 446.081C116.709 446.081 117.559 445.73 118.207 445.082C119.112 444.177 119.112 443.232 119.112 441.194ZM118.086 441.194C118.086 443.205 118.018 443.853 117.411 444.474C116.992 444.906 116.385 445.163 115.75 445.163C115.116 445.163 114.508 444.906 114.09 444.474C113.482 443.853 113.415 443.205 113.415 441.194C113.415 439.183 113.482 438.534 114.09 437.913C114.508 437.481 115.116 437.225 115.75 437.225C116.385 437.225 116.992 437.481 117.411 437.913C118.018 438.534 118.086 439.183 118.086 441.194Z" fill="white"/>
<path d="M192.46 249.354C192.46 248.557 192.176 247.896 191.65 247.45C191.245 247.099 190.799 246.91 189.895 246.775L188.842 246.613C188.342 246.532 187.843 246.343 187.546 246.087C187.249 245.83 187.114 245.452 187.114 244.98C187.114 243.913 187.856 243.198 189.139 243.198C190.151 243.198 190.786 243.481 191.38 244.021L192.041 243.36C191.218 242.617 190.408 242.307 189.179 242.307C187.276 242.307 186.101 243.387 186.101 245.02C186.101 245.79 186.344 246.384 186.83 246.816C187.249 247.18 187.843 247.423 188.599 247.545L189.719 247.72C190.421 247.828 190.664 247.909 190.975 248.179C191.285 248.449 191.434 248.881 191.434 249.381C191.434 250.501 190.57 251.163 189.166 251.163C188.086 251.163 187.343 250.906 186.547 250.11L185.845 250.812C186.749 251.716 187.694 252.081 189.139 252.081C191.137 252.081 192.46 251.041 192.46 249.354ZM201.557 245.209C201.557 243.481 200.342 242.388 198.587 242.388H195.01V252H196.036V248.044H198.587C200.342 248.044 201.557 246.937 201.557 245.209ZM200.531 245.209C200.531 246.478 199.694 247.126 198.493 247.126H196.036V243.306H198.493C199.694 243.306 200.531 243.94 200.531 245.209ZM209.885 252V251.082H204.944V247.612H209.156V246.694H204.944V243.306H209.885V242.388H203.918V252H209.885ZM218.385 252V251.082H213.444V247.612H217.656V246.694H213.444V243.306H218.385V242.388H212.418V252H218.385ZM227.587 247.086C227.587 245.749 227.641 244.278 226.642 243.279C226.061 242.698 225.211 242.388 224.212 242.388H220.918V252H224.212C225.211 252 226.061 251.689 226.642 251.109C227.641 250.11 227.587 248.422 227.587 247.086ZM226.561 247.086C226.561 248.26 226.588 249.691 225.926 250.38C225.427 250.893 224.779 251.082 224.036 251.082H221.944V243.306H224.036C224.779 243.306 225.427 243.495 225.926 244.008C226.588 244.696 226.561 245.911 226.561 247.086ZM239.775 243.306V242.388H233.187V243.306H235.968V252H236.994V243.306H239.775ZM248.069 247.194C248.069 245.155 248.069 244.21 247.164 243.306C246.516 242.658 245.666 242.307 244.707 242.307C243.749 242.307 242.898 242.658 242.25 243.306C241.346 244.21 241.346 245.155 241.346 247.194C241.346 249.232 241.346 250.177 242.25 251.082C242.898 251.73 243.749 252.081 244.707 252.081C245.666 252.081 246.516 251.73 247.164 251.082C248.069 250.177 248.069 249.232 248.069 247.194ZM247.043 247.194C247.043 249.205 246.975 249.853 246.368 250.474C245.949 250.906 245.342 251.163 244.707 251.163C244.073 251.163 243.465 250.906 243.047 250.474C242.439 249.853 242.372 249.205 242.372 247.194C242.372 245.183 242.439 244.534 243.047 243.913C243.465 243.481 244.073 243.225 244.707 243.225C245.342 243.225 245.949 243.481 246.368 243.913C246.975 244.534 247.043 245.183 247.043 247.194ZM255.688 252V242.388H254.662V252H255.688ZM265.978 252V242.388H264.952V250.069L259.849 242.388H258.877V252H259.903V244.291L265.006 252H265.978ZM274.962 249.354C274.962 248.557 274.678 247.896 274.152 247.45C273.747 247.099 273.301 246.91 272.397 246.775L271.344 246.613C270.844 246.532 270.345 246.343 270.048 246.087C269.751 245.83 269.616 245.452 269.616 244.98C269.616 243.913 270.358 243.198 271.641 243.198C272.653 243.198 273.288 243.481 273.882 244.021L274.543 243.36C273.72 242.617 272.91 242.307 271.681 242.307C269.778 242.307 268.603 243.387 268.603 245.02C268.603 245.79 268.846 246.384 269.332 246.816C269.751 247.18 270.345 247.423 271.101 247.545L272.221 247.72C272.923 247.828 273.166 247.909 273.477 248.179C273.787 248.449 273.936 248.881 273.936 249.381C273.936 250.501 273.072 251.163 271.668 251.163C270.588 251.163 269.845 250.906 269.049 250.11L268.347 250.812C269.251 251.716 270.196 252.081 271.641 252.081C273.639 252.081 274.962 251.041 274.962 249.354ZM278.538 252V242.388H277.512V252H278.538ZM288.112 248.49V246.964H284.724V247.869H287.086V248.598C287.086 249.34 286.938 249.867 286.546 250.339C286.101 250.879 285.426 251.163 284.724 251.163C284.089 251.163 283.482 250.92 283.063 250.488C282.456 249.867 282.388 249.205 282.388 247.194C282.388 245.183 282.456 244.534 283.063 243.913C283.482 243.481 284.089 243.225 284.724 243.225C285.925 243.225 286.789 243.967 287.059 245.183H288.085C287.802 243.495 286.56 242.307 284.724 242.307C283.765 242.307 282.915 242.658 282.267 243.306C281.362 244.21 281.362 245.155 281.362 247.194C281.362 249.232 281.362 250.177 282.267 251.082C282.915 251.73 283.779 252.081 284.724 252.081C285.709 252.081 286.614 251.703 287.289 250.974C287.883 250.339 288.112 249.597 288.112 248.49ZM297.527 252V242.388H296.501V246.694H291.938V242.388H290.912V252H291.938V247.612H296.501V252H297.527ZM306.319 243.306V242.388H299.731V243.306H302.512V252H303.538V243.306H306.319Z" fill="white"/>
<path d="M202.906 379V369.388H201.88V373.694H197.317V369.388H196.291V379H197.317V374.612H201.88V379H202.906ZM212.792 379L209.269 369.388H208.405L204.868 379H205.961L206.731 376.826H210.929L211.699 379H212.792ZM210.632 375.935H207.041L208.85 370.859L210.632 375.935ZM221.356 376.34C221.356 375.193 220.708 374.396 219.79 374.059C220.6 373.762 221.207 372.965 221.207 371.953C221.207 370.346 220.046 369.388 218.372 369.388H214.754V379H218.494C220.195 379 221.356 378.082 221.356 376.34ZM220.33 376.313C220.33 377.393 219.587 378.082 218.399 378.082H215.78V374.558H218.399C219.587 374.558 220.33 375.233 220.33 376.313ZM220.181 371.966C220.181 373.114 219.358 373.64 218.291 373.64H215.78V370.306H218.291C219.358 370.306 220.181 370.819 220.181 371.966ZM225.203 379V369.388H224.177V379H225.203ZM233.994 370.306V369.388H227.406V370.306H230.187V379H231.213V370.306H233.994ZM242.288 374.194C242.288 372.155 242.288 371.21 241.383 370.306C240.735 369.658 239.885 369.307 238.926 369.307C237.968 369.307 237.117 369.658 236.469 370.306C235.565 371.21 235.565 372.155 235.565 374.194C235.565 376.232 235.565 377.177 236.469 378.082C237.117 378.73 237.968 379.081 238.926 379.081C239.885 379.081 240.735 378.73 241.383 378.082C242.288 377.177 242.288 376.232 242.288 374.194ZM241.262 374.194C241.262 376.205 241.194 376.853 240.587 377.474C240.168 377.906 239.561 378.163 238.926 378.163C238.292 378.163 237.684 377.906 237.266 377.474C236.658 376.853 236.591 376.205 236.591 374.194C236.591 372.183 236.658 371.534 237.266 370.913C237.684 370.481 238.292 370.225 238.926 370.225C239.561 370.225 240.168 370.481 240.587 370.913C241.194 371.534 241.262 372.183 241.262 374.194ZM257.116 379V369.388H256.09L253.039 376.205L249.907 369.388H248.881V379H249.907V371.696L252.58 377.488H253.458L256.09 371.696V379H257.116ZM266.882 375.827V369.388H265.856V375.746C265.856 377.204 264.925 378.163 263.521 378.163C262.117 378.163 261.199 377.204 261.199 375.746V369.388H260.173V375.827C260.173 377.744 261.577 379.081 263.521 379.081C265.465 379.081 266.882 377.744 266.882 375.827ZM277.029 379V369.388H276.003V377.069L270.9 369.388H269.928V379H270.954V371.291L276.057 379H277.029ZM286.89 374.086C286.89 372.749 286.944 371.278 285.945 370.279C285.364 369.698 284.514 369.388 283.515 369.388H280.221V379H283.515C284.514 379 285.364 378.689 285.945 378.109C286.944 377.11 286.89 375.422 286.89 374.086ZM285.864 374.086C285.864 375.26 285.891 376.691 285.229 377.38C284.73 377.893 284.082 378.082 283.339 378.082H281.247V370.306H283.339C284.082 370.306 284.73 370.495 285.229 371.008C285.891 371.696 285.864 372.911 285.864 374.086ZM296.068 374.194C296.068 372.155 296.068 371.21 295.163 370.306C294.515 369.658 293.665 369.307 292.706 369.307C291.748 369.307 290.897 369.658 290.249 370.306C289.345 371.21 289.345 372.155 289.345 374.194C289.345 376.232 289.345 377.177 290.249 378.082C290.897 378.73 291.748 379.081 292.706 379.081C293.665 379.081 294.515 378.73 295.163 378.082C296.068 377.177 296.068 376.232 296.068 374.194ZM295.042 374.194C295.042 376.205 294.974 376.853 294.367 377.474C293.948 377.906 293.341 378.163 292.706 378.163C292.072 378.163 291.464 377.906 291.046 377.474C290.438 376.853 290.371 376.205 290.371 374.194C290.371 372.183 290.438 371.534 291.046 370.913C291.464 370.481 292.072 370.225 292.706 370.225C293.341 370.225 293.948 370.481 294.367 370.913C294.974 371.534 295.042 372.183 295.042 374.194ZM198.495 389.306V388.388H192.528V398H193.554V393.761H197.766V392.843H193.554V389.306H198.495ZM201.79 398V388.388H200.764V398H201.79ZM203.113 385.391H201.952L200.764 387.456H201.655L203.113 385.391ZM210.771 395.354C210.771 394.557 210.487 393.896 209.961 393.45C209.556 393.099 209.11 392.91 208.206 392.775L207.153 392.613C206.653 392.532 206.154 392.343 205.857 392.087C205.56 391.83 205.425 391.452 205.425 390.98C205.425 389.913 206.167 389.198 207.45 389.198C208.462 389.198 209.097 389.481 209.691 390.021L210.352 389.36C209.529 388.617 208.719 388.307 207.49 388.307C205.587 388.307 204.412 389.387 204.412 391.02C204.412 391.79 204.655 392.384 205.141 392.816C205.56 393.18 206.154 393.423 206.91 393.545L208.03 393.72C208.732 393.828 208.975 393.909 209.286 394.179C209.596 394.449 209.745 394.881 209.745 395.381C209.745 396.501 208.881 397.163 207.477 397.163C206.397 397.163 205.654 396.906 204.858 396.11L204.156 396.812C205.06 397.716 206.005 398.081 207.45 398.081C209.448 398.081 210.771 397.041 210.771 395.354ZM214.347 398V388.388H213.321V398H214.347ZM223.867 395.219H222.841C222.585 396.393 221.734 397.163 220.533 397.163C219.898 397.163 219.291 396.92 218.872 396.488C218.265 395.867 218.197 395.205 218.197 393.194C218.197 391.183 218.265 390.521 218.872 389.9C219.291 389.468 219.898 389.225 220.533 389.225C221.734 389.225 222.558 389.994 222.814 391.169H223.867C223.543 389.36 222.261 388.307 220.533 388.307C219.588 388.307 218.724 388.658 218.076 389.306C217.171 390.21 217.171 391.155 217.171 393.194C217.171 395.232 217.171 396.177 218.076 397.082C218.724 397.73 219.588 398.081 220.533 398.081C222.247 398.081 223.557 397.028 223.867 395.219ZM232.895 393.194C232.895 391.155 232.895 390.21 231.991 389.306C231.343 388.658 230.492 388.307 229.534 388.307C228.575 388.307 227.725 388.658 227.077 389.306C226.172 390.21 226.172 391.155 226.172 393.194C226.172 395.232 226.172 396.177 227.077 397.082C227.725 397.73 228.575 398.081 229.534 398.081C230.492 398.081 231.343 397.73 231.991 397.082C232.895 396.177 232.895 395.232 232.895 393.194ZM231.869 393.194C231.869 395.205 231.802 395.853 231.194 396.474C230.776 396.906 230.168 397.163 229.534 397.163C228.899 397.163 228.292 396.906 227.873 396.474C227.266 395.853 227.198 395.205 227.198 393.194C227.198 391.183 227.266 390.534 227.873 389.913C228.292 389.481 228.899 389.225 229.534 389.225C230.168 389.225 230.776 389.481 231.194 389.913C231.802 390.534 231.869 391.183 231.869 393.194ZM245.456 398V397.082H240.515V393.612H244.727V392.694H240.515V389.306H245.456V388.388H239.489V398H245.456ZM258.424 393.086C258.424 391.749 258.478 390.278 257.479 389.279C256.899 388.698 256.048 388.388 255.049 388.388H251.755V398H255.049C256.048 398 256.899 397.689 257.479 397.109C258.478 396.11 258.424 394.422 258.424 393.086ZM257.398 393.086C257.398 394.26 257.425 395.691 256.764 396.38C256.264 396.893 255.616 397.082 254.874 397.082H252.781V389.306H254.874C255.616 389.306 256.264 389.495 256.764 390.008C257.425 390.696 257.398 391.911 257.398 393.086ZM262.27 398V388.388H261.244V398H262.27ZM271.844 394.49V392.964H268.456V393.869H270.818V394.598C270.818 395.34 270.67 395.867 270.278 396.339C269.833 396.879 269.158 397.163 268.456 397.163C267.821 397.163 267.214 396.92 266.795 396.488C266.188 395.867 266.12 395.205 266.12 393.194C266.12 391.183 266.188 390.534 266.795 389.913C267.214 389.481 267.821 389.225 268.456 389.225C269.657 389.225 270.521 389.967 270.791 391.183H271.817C271.534 389.495 270.292 388.307 268.456 388.307C267.497 388.307 266.647 388.658 265.999 389.306C265.094 390.21 265.094 391.155 265.094 393.194C265.094 395.232 265.094 396.177 265.999 397.082C266.647 397.73 267.511 398.081 268.456 398.081C269.441 398.081 270.346 397.703 271.021 396.974C271.615 396.339 271.844 395.597 271.844 394.49ZM275.67 398V388.388H274.644V398H275.67ZM284.462 389.306V388.388H277.874V389.306H280.655V398H281.681V389.306H284.462ZM292.552 398L289.029 388.388H288.165L284.628 398H285.721L286.491 395.826H290.689L291.459 398H292.552ZM290.392 394.935H286.801L288.61 389.859L290.392 394.935ZM300.454 398V397.082H295.54V388.388H294.514V398H300.454ZM194.064 414.219H193.038C192.781 415.393 191.931 416.163 190.729 416.163C190.095 416.163 189.487 415.92 189.069 415.488C188.461 414.867 188.394 414.205 188.394 412.194C188.394 410.183 188.461 409.521 189.069 408.9C189.487 408.468 190.095 408.225 190.729 408.225C191.931 408.225 192.754 408.994 193.011 410.169H194.064C193.74 408.36 192.457 407.307 190.729 407.307C189.784 407.307 188.92 407.658 188.272 408.306C187.368 409.21 187.368 410.155 187.368 412.194C187.368 414.232 187.368 415.177 188.272 416.082C188.92 416.73 189.784 417.081 190.729 417.081C192.444 417.081 193.753 416.028 194.064 414.219ZM203.092 412.194C203.092 410.155 203.092 409.21 202.187 408.306C201.539 407.658 200.689 407.307 199.73 407.307C198.772 407.307 197.921 407.658 197.273 408.306C196.369 409.21 196.369 410.155 196.369 412.194C196.369 414.232 196.369 415.177 197.273 416.082C197.921 416.73 198.772 417.081 199.73 417.081C200.689 417.081 201.539 416.73 202.187 416.082C203.092 415.177 203.092 414.232 203.092 412.194ZM202.066 412.194C202.066 414.205 201.998 414.853 201.391 415.474C200.972 415.906 200.365 416.163 199.73 416.163C199.096 416.163 198.488 415.906 198.07 415.474C197.462 414.853 197.395 414.205 197.395 412.194C197.395 410.183 197.462 409.534 198.07 408.913C198.488 408.481 199.096 408.225 199.73 408.225C200.365 408.225 200.972 408.481 201.391 408.913C201.998 409.534 202.066 410.183 202.066 412.194ZM214.153 417V407.388H213.127L210.076 414.205L206.944 407.388H205.918V417H206.944V409.696L209.617 415.488H210.495L213.127 409.696V417H214.153ZM223.703 412.194C223.703 410.155 223.703 409.21 222.799 408.306C222.151 407.658 221.3 407.307 220.342 407.307C219.383 407.307 218.533 407.658 217.885 408.306C216.98 409.21 216.98 410.155 216.98 412.194C216.98 414.232 216.98 415.177 217.885 416.082C218.533 416.73 219.383 417.081 220.342 417.081C221.3 417.081 222.151 416.73 222.799 416.082C223.703 415.177 223.703 414.232 223.703 412.194ZM222.677 412.194C222.677 414.205 222.61 414.853 222.002 415.474C221.584 415.906 220.976 416.163 220.342 416.163C219.707 416.163 219.1 415.906 218.681 415.474C218.074 414.853 218.006 414.205 218.006 412.194C218.006 410.183 218.074 409.534 218.681 408.913C219.1 408.481 219.707 408.225 220.342 408.225C220.976 408.225 221.584 408.481 222.002 408.913C222.61 409.534 222.677 410.183 222.677 412.194ZM236.993 417L233.469 407.388H232.605L229.068 417H230.162L230.931 414.826H235.13L235.899 417H236.993ZM234.833 413.935H231.242L233.051 408.859L234.833 413.935ZM247.19 417V407.388H246.164L243.113 414.205L239.981 407.388H238.955V417H239.981V409.696L242.654 415.488H243.531L246.164 409.696V417H247.19ZM256.983 414.34C256.983 413.193 256.335 412.396 255.417 412.059C256.227 411.762 256.834 410.965 256.834 409.953C256.834 408.346 255.673 407.388 253.999 407.388H250.381V417H254.121C255.822 417 256.983 416.082 256.983 414.34ZM255.957 414.313C255.957 415.393 255.214 416.082 254.026 416.082H251.407V412.558H254.026C255.214 412.558 255.957 413.233 255.957 414.313ZM255.808 409.966C255.808 411.114 254.985 411.64 253.918 411.64H251.407V408.306H253.918C254.985 408.306 255.808 408.819 255.808 409.966ZM260.83 417V407.388H259.804V417H260.83ZM269.986 417V416.082H265.045V412.612H269.257V411.694H265.045V408.306H269.986V407.388H264.019V417H269.986ZM279.62 417V407.388H278.594V415.069L273.491 407.388H272.519V417H273.545V409.291L278.648 417H279.62ZM288.414 408.306V407.388H281.826V408.306H284.607V417H285.633V408.306H288.414ZM296.579 417V416.082H291.638V412.612H295.85V411.694H291.638V408.306H296.579V407.388H290.612V417H296.579ZM304.904 414.354C304.904 413.557 304.62 412.896 304.094 412.45C303.689 412.099 303.243 411.91 302.339 411.775L301.286 411.613C300.786 411.532 300.287 411.343 299.99 411.087C299.693 410.83 299.558 410.452 299.558 409.98C299.558 408.913 300.3 408.198 301.583 408.198C302.595 408.198 303.23 408.481 303.824 409.021L304.485 408.36C303.662 407.617 302.852 407.307 301.623 407.307C299.72 407.307 298.545 408.387 298.545 410.02C298.545 410.79 298.788 411.384 299.274 411.816C299.693 412.18 300.287 412.423 301.043 412.545L302.163 412.72C302.865 412.828 303.108 412.909 303.419 413.179C303.729 413.449 303.878 413.881 303.878 414.381C303.878 415.501 303.014 416.163 301.61 416.163C300.53 416.163 299.787 415.906 298.991 415.11L298.289 415.812C299.193 416.716 300.138 417.081 301.583 417.081C303.581 417.081 304.904 416.041 304.904 414.354ZM215.033 431.086C215.033 429.749 215.087 428.278 214.088 427.279C213.507 426.698 212.657 426.388 211.658 426.388H208.364V436H211.658C212.657 436 213.507 435.689 214.088 435.109C215.087 434.11 215.033 432.422 215.033 431.086ZM214.007 431.086C214.007 432.26 214.034 433.691 213.372 434.38C212.873 434.893 212.225 435.082 211.482 435.082H209.39V427.306H211.482C212.225 427.306 212.873 427.495 213.372 428.008C214.034 428.696 214.007 429.911 214.007 431.086ZM223.819 436V435.082H218.878V431.612H223.09V430.694H218.878V427.306H223.819V426.388H217.852V436H223.819ZM236.086 436V435.082H231.145V431.612H235.357V430.694H231.145V427.306H236.086V426.388H230.119V436H236.086ZM244.41 433.354C244.41 432.557 244.127 431.896 243.6 431.45C243.195 431.099 242.75 430.91 241.845 430.775L240.792 430.613C240.293 430.532 239.793 430.343 239.496 430.087C239.199 429.83 239.064 429.452 239.064 428.98C239.064 427.913 239.807 427.198 241.089 427.198C242.102 427.198 242.736 427.481 243.33 428.021L243.992 427.36C243.168 426.617 242.358 426.307 241.13 426.307C239.226 426.307 238.052 427.387 238.052 429.02C238.052 429.79 238.295 430.384 238.781 430.816C239.199 431.18 239.793 431.423 240.549 431.545L241.67 431.72C242.372 431.828 242.615 431.909 242.925 432.179C243.236 432.449 243.384 432.881 243.384 433.381C243.384 434.501 242.52 435.163 241.116 435.163C240.036 435.163 239.294 434.906 238.497 434.11L237.795 434.812C238.7 435.716 239.645 436.081 241.089 436.081C243.087 436.081 244.41 435.041 244.41 433.354ZM252.563 427.306V426.388H245.975V427.306H248.756V436H249.782V427.306H252.563ZM261.336 432.827V426.388H260.31V432.746C260.31 434.204 259.378 435.163 257.974 435.163C256.57 435.163 255.652 434.204 255.652 432.746V426.388H254.626V432.827C254.626 434.744 256.03 436.081 257.974 436.081C259.918 436.081 261.336 434.744 261.336 432.827ZM271.051 431.086C271.051 429.749 271.105 428.278 270.106 427.279C269.525 426.698 268.675 426.388 267.676 426.388H264.382V436H267.676C268.675 436 269.525 435.689 270.106 435.109C271.105 434.11 271.051 432.422 271.051 431.086ZM270.025 431.086C270.025 432.26 270.052 433.691 269.39 434.38C268.891 434.893 268.243 435.082 267.5 435.082H265.408V427.306H267.5C268.243 427.306 268.891 427.495 269.39 428.008C270.052 428.696 270.025 429.911 270.025 431.086ZM280.229 431.194C280.229 429.155 280.229 428.21 279.324 427.306C278.676 426.658 277.826 426.307 276.867 426.307C275.909 426.307 275.058 426.658 274.41 427.306C273.506 428.21 273.506 429.155 273.506 431.194C273.506 433.232 273.506 434.177 274.41 435.082C275.058 435.73 275.909 436.081 276.867 436.081C277.826 436.081 278.676 435.73 279.324 435.082C280.229 434.177 280.229 433.232 280.229 431.194ZM279.203 431.194C279.203 433.205 279.135 433.853 278.528 434.474C278.109 434.906 277.502 435.163 276.867 435.163C276.233 435.163 275.625 434.906 275.207 434.474C274.599 433.853 274.532 433.205 274.532 431.194C274.532 429.183 274.599 428.534 275.207 427.913C275.625 427.481 276.233 427.225 276.867 427.225C277.502 427.225 278.109 427.481 278.528 427.913C279.135 428.534 279.203 429.183 279.203 431.194ZM213.761 455L210.238 445.388H209.374L205.837 455H206.93L207.7 452.826H211.898L212.668 455H213.761ZM211.601 451.935H208.01L209.819 446.859L211.601 451.935ZM220.522 446.306V445.388H213.934V446.306H216.715V455H217.741V446.306H220.522ZM233.588 455V445.388H232.562V453.069L227.459 445.388H226.487V455H227.513V447.291L232.616 455H233.588ZM243.476 455L239.952 445.388H239.088L235.551 455H236.645L237.414 452.826H241.613L242.382 455H243.476ZM241.316 451.935H237.725L239.534 446.859L241.316 451.935ZM250.236 446.306V445.388H243.648V446.306H246.429V455H247.455V446.306H250.236ZM259.009 451.827V445.388H257.983V451.746C257.983 453.204 257.051 454.163 255.647 454.163C254.243 454.163 253.325 453.204 253.325 451.746V445.388H252.299V451.827C252.299 453.744 253.703 455.081 255.647 455.081C257.591 455.081 259.009 453.744 259.009 451.827ZM268.778 455L266.496 450.639C267.738 450.383 268.589 449.465 268.589 448.061C268.589 446.4 267.414 445.388 265.74 445.388H262.055V455H263.081V450.734H265.389L267.576 455H268.778ZM267.563 448.074C267.563 449.249 266.766 449.829 265.646 449.829H263.081V446.306H265.646C266.766 446.306 267.563 446.9 267.563 448.074ZM278.015 455L274.491 445.388H273.627L270.09 455H271.184L271.953 452.826H276.152L276.921 455H278.015ZM275.855 451.935H272.264L274.073 446.859L275.855 451.935ZM285.917 455V454.082H281.003V445.388H279.977V455H285.917Z" fill="white"/>
</svg>
