<svg width="204" height="89" viewBox="0 0 204 89" fill="none" xmlns="http://www.w3.org/2000/svg">
<path d="M2.96319 66.5748V68.9919C2.96319 78.8705 10.9411 86.8787 20.7822 86.8787C30.6234 86.8787 38.6013 78.8705 38.6013 68.9919V61.3538C38.6013 57.8295 35.7551 54.9725 32.2442 54.9725H20.7822C10.4091 54.9725 2 46.5315 2 36.1189V35.6355C2 25.4899 10.1935 17.2653 20.3007 17.2653C30.4078 17.2653 38.6013 25.4899 38.6013 35.6355V45.7874C38.6013 47.6564 40.1106 49.1714 41.9725 49.1714C43.8343 49.1714 45.3437 47.6564 45.3437 45.7874V33.2184C45.3437 24.4077 52.459 17.2653 61.2363 17.2653H61.7179M66.5337 21.1325V51.5883C66.5337 53.9912 68.4742 55.9392 70.868 55.9392C73.2618 55.9392 75.2024 53.9912 75.2024 51.5883V27.9004C75.2024 23.0946 79.0835 19.1987 83.8711 19.1987H85.7099C89.482 19.1987 92.5398 22.2682 92.5398 26.0546V26.4501C92.5398 28.8531 94.4804 30.801 96.8742 30.801C99.268 30.801 101.209 28.853 101.209 26.4501V26.0546C101.209 22.2682 104.266 19.1987 108.038 19.1987H110.359C115.412 19.1987 119.509 23.3111 119.509 28.3838V52.4455C119.509 54.375 121.067 55.9392 122.99 55.9392H128.797M128.797 55.9392V37.5689C128.797 27.4234 136.991 19.1987 147.098 19.1987C157.205 19.1987 165.398 27.4234 165.398 37.569M128.797 55.9392V87.5M128.797 55.9392H147.098C157.205 55.9392 165.398 47.7145 165.398 37.569M165.398 37.569C165.398 27.4234 173.592 19.1987 183.699 19.1987C193.807 19.1987 202 27.4234 202 37.5689V55.9392H183.699C173.592 55.9392 165.398 47.7145 165.398 37.569ZM66.5337 0V13.6658" stroke="#7A736F" stroke-width="3.4"/>
</svg>
