<svg width="45" height="114" viewBox="0 0 45 114" fill="none" xmlns="http://www.w3.org/2000/svg">
<path d="M44.48 114V116H46.48V114H44.48ZM44.48 0.079998H46.48V-1.92H44.48V0.079998ZM23.68 0.079998V-1.92H22.9324L22.3682 -1.42966L23.68 0.079998ZM0.480001 20.24L-0.831841 18.7303L-1.52 19.3283V20.24H0.480001ZM0.480001 42.64H-1.52V47.0275L1.79184 44.1497L0.480001 42.64ZM23.68 22.48H25.68V18.0925L22.3682 20.9703L23.68 22.48ZM23.68 114H21.68V116H23.68V114ZM46.48 114V0.079998H42.48V114H46.48ZM44.48 -1.92H23.68V2.08H44.48V-1.92ZM22.3682 -1.42966L-0.831841 18.7303L1.79184 21.7497L24.9918 1.58966L22.3682 -1.42966ZM-1.52 20.24V42.64H2.48V20.24H-1.52ZM1.79184 44.1497L24.9918 23.9897L22.3682 20.9703L-0.831841 41.1303L1.79184 44.1497ZM21.68 22.48V114H25.68V22.48H21.68ZM23.68 116H44.48V112H23.68V116Z" fill="#FF6D65"/>
</svg>
