<svg width="70" height="115" viewBox="0 0 70 115" fill="none" xmlns="http://www.w3.org/2000/svg">
<path d="M69.72 115V117H71.72V115H69.72ZM69.72 96.28H71.72V94.28H69.72V96.28ZM25.72 96.28L24.2047 94.9746L21.3573 98.28H25.72V96.28ZM57.56 59.32L59.0753 60.6254L59.0766 60.6238L57.56 59.32ZM0.440001 33.4H-1.56V35.4H0.440001V33.4ZM21.24 33.4V35.4H23.24V33.4H21.24ZM43 46.84L44.5157 48.1448L44.5241 48.1351L44.5324 48.1252L43 46.84ZM0.440001 96.28L-1.07574 94.9752L-1.56 95.5377V96.28H0.440001ZM0.440001 115H-1.56V117H0.440001V115ZM71.72 115V96.28H67.72V115H71.72ZM69.72 94.28H25.72V98.28H69.72V94.28ZM27.2353 97.5854L59.0753 60.6254L56.0447 58.0146L24.2047 94.9746L27.2353 97.5854ZM59.0766 60.6238C62.9909 56.0704 66.1775 52.1497 68.3581 47.9157C70.5732 43.6145 71.72 39.0576 71.72 33.24H67.72C67.72 38.4623 66.7068 42.3855 64.8019 46.0843C62.8625 49.8503 59.9691 53.4496 56.0434 58.0162L59.0766 60.6238ZM71.72 33.24C71.72 22.5081 67.9335 13.6774 61.3657 7.53883C54.8136 1.41503 45.656 -1.88001 35.16 -1.88001V2.11999C44.824 2.11999 52.9464 5.14495 58.6343 10.4612C64.3065 15.7626 67.72 23.4919 67.72 33.24H71.72ZM35.16 -1.88001C24.9787 -1.88001 15.7919 1.37766 9.12855 7.48569C2.44425 13.613 -1.56 22.4829 -1.56 33.4H2.44C2.44 23.5171 6.03575 15.747 11.8315 10.4343C17.6481 5.10233 25.8213 2.11999 35.16 2.11999V-1.88001ZM0.440001 35.4H21.24V31.4H0.440001V35.4ZM23.24 33.4C23.24 28.3316 24.8365 25.2971 26.9263 23.4944C29.071 21.6445 32.027 20.84 35.16 20.84V16.84C31.413 16.84 27.409 17.7955 24.3137 20.4656C21.1635 23.1829 19.24 27.4284 19.24 33.4H23.24ZM35.16 20.84C39.1063 20.84 41.9811 22.1181 43.8798 24.1467C45.796 26.1939 46.92 29.2224 46.92 33.08H50.92C50.92 28.4576 49.564 24.3661 46.8002 21.4133C44.0189 18.4419 40.0137 16.84 35.16 16.84V20.84ZM46.92 33.08C46.92 35.473 46.5261 37.3918 45.6924 39.2677C44.8427 41.1795 43.4982 43.1337 41.4676 45.5548L44.5324 48.1252C46.6618 45.5863 48.2773 43.3005 49.3476 40.8923C50.4339 38.4482 50.92 35.967 50.92 33.08H46.92ZM41.4843 45.5352L-1.07574 94.9752L1.95574 97.5848L44.5157 48.1448L41.4843 45.5352ZM-1.56 96.28V115H2.44V96.28H-1.56ZM0.440001 117H69.72V113H0.440001V117Z" fill="#FF6D65"/>
</svg>
