<!-- <svg width="398" height="582" viewBox="0 0 398 582" fill="none" xmlns="http://www.w3.org/2000/svg">
<path opacity="0.1" d="M339.672 422.09C261.967 499.794 135.983 499.794 58.2784 422.09C-19.4261 344.385 -19.4261 218.401 58.2784 140.697L198.975 0L339.672 140.697C417.376 218.401 417.376 344.385 339.672 422.09Z" fill="#FF6D65"/>
<path opacity="0.2" d="M260.304 185.799C226.133 219.97 170.731 219.97 136.56 185.799C102.39 151.628 102.39 96.226 136.56 62.0552L198.432 0.183319L260.304 62.0552C294.475 96.226 294.475 151.628 260.304 185.799Z" fill="#FF6D65"/>
<path d="M158.228 286.478C158.228 284.438 157.076 283.022 155.444 282.422C156.884 281.894 157.964 280.478 157.964 278.678C157.964 275.822 155.9 274.118 152.924 274.118H146.492V291.206H153.14C156.164 291.206 158.228 289.574 158.228 286.478ZM156.404 286.43C156.404 288.35 155.084 289.574 152.972 289.574H148.316V283.31H152.972C155.084 283.31 156.404 284.51 156.404 286.43ZM156.14 278.702C156.14 280.742 154.676 281.678 152.78 281.678H148.316V275.75H152.78C154.676 275.75 156.14 276.662 156.14 278.702ZM165.547 291.206V274.118H163.723V291.206H165.547ZM183.048 284.966V282.254H177.024V283.862H181.224V285.158C181.224 286.478 180.96 287.414 180.264 288.254C179.472 289.214 178.272 289.718 177.024 289.718C175.896 289.718 174.816 289.286 174.072 288.518C172.992 287.414 172.872 286.238 172.872 282.662C172.872 279.086 172.992 277.934 174.072 276.83C174.816 276.062 175.896 275.606 177.024 275.606C179.16 275.606 180.696 276.926 181.176 279.086H183C182.496 276.086 180.288 273.974 177.024 273.974C175.32 273.974 173.808 274.598 172.656 275.75C171.048 277.358 171.048 279.038 171.048 282.662C171.048 286.286 171.048 287.966 172.656 289.574C173.808 290.726 175.344 291.35 177.024 291.35C178.776 291.35 180.384 290.678 181.584 289.382C182.64 288.254 183.048 286.934 183.048 284.966ZM207.538 282.47C207.538 280.094 207.634 277.478 205.858 275.702C204.826 274.67 203.314 274.118 201.538 274.118H195.682V291.206H201.538C203.314 291.206 204.826 290.654 205.858 289.622C207.634 287.846 207.538 284.846 207.538 282.47ZM205.714 282.47C205.714 284.558 205.762 287.102 204.586 288.326C203.698 289.238 202.546 289.574 201.226 289.574H197.506V275.75H201.226C202.546 275.75 203.698 276.086 204.586 276.998C205.762 278.222 205.714 280.382 205.714 282.47ZM224.7 291.206L218.436 274.118H216.9L210.612 291.206H212.556L213.924 287.342H221.388L222.756 291.206H224.7ZM220.86 285.758H214.476L217.692 276.734L220.86 285.758ZM237.199 275.75V274.118H225.487V275.75H230.431V291.206H232.255V275.75H237.199ZM252.061 291.206L245.797 274.118H244.261L237.973 291.206H239.917L241.285 287.342H248.749L250.117 291.206H252.061ZM248.221 285.758H241.837L245.053 276.734L248.221 285.758Z" fill="white"/>
<path d="M171.355 143.312C171.355 141.896 170.851 140.72 169.915 139.928C169.195 139.304 168.403 138.968 166.795 138.728L164.923 138.44C164.035 138.296 163.147 137.96 162.619 137.504C162.091 137.048 161.851 136.376 161.851 135.536C161.851 133.64 163.171 132.368 165.451 132.368C167.251 132.368 168.379 132.872 169.435 133.832L170.611 132.656C169.147 131.336 167.707 130.784 165.523 130.784C162.139 130.784 160.051 132.704 160.051 135.608C160.051 136.976 160.483 138.032 161.347 138.8C162.091 139.448 163.147 139.88 164.491 140.096L166.483 140.408C167.731 140.6 168.163 140.744 168.715 141.224C169.267 141.704 169.531 142.472 169.531 143.36C169.531 145.352 167.995 146.528 165.499 146.528C163.579 146.528 162.259 146.072 160.843 144.656L159.595 145.904C161.203 147.512 162.883 148.16 165.451 148.16C169.003 148.16 171.355 146.312 171.355 143.312ZM191.008 148.016V130.928H189.184L183.76 143.048L178.192 130.928H176.368V148.016H178.192V135.032L182.944 145.328H184.504L189.184 135.032V148.016H191.008ZM209.066 148.016L202.802 130.928H201.266L194.978 148.016H196.922L198.29 144.152H205.754L207.122 148.016H209.066ZM205.226 142.568H198.842L202.058 133.544L205.226 142.568ZM223.594 148.016V146.384H214.858V130.928H213.034V148.016H223.594ZM238.552 148.016V146.384H229.816V130.928H227.992V148.016H238.552ZM183.687 173.28C183.687 170.904 183.783 168.288 182.007 166.512C180.975 165.48 179.463 164.928 177.687 164.928H171.831V182.016H177.687C179.463 182.016 180.975 181.464 182.007 180.432C183.783 178.656 183.687 175.656 183.687 173.28ZM181.863 173.28C181.863 175.368 181.911 177.912 180.735 179.136C179.847 180.048 178.695 180.384 177.375 180.384H173.655V166.56H177.375C178.695 166.56 179.847 166.896 180.735 167.808C181.911 169.032 181.863 171.192 181.863 173.28ZM200.849 182.016L194.585 164.928H193.049L186.761 182.016H188.705L190.073 178.152H197.537L198.905 182.016H200.849ZM197.009 176.568H190.625L193.841 167.544L197.009 176.568ZM213.347 166.56V164.928H201.635V166.56H206.579V182.016H208.403V166.56H213.347ZM228.21 182.016L221.946 164.928H220.41L214.122 182.016H216.066L217.434 178.152H224.898L226.266 182.016H228.21ZM224.37 176.568H217.986L221.202 167.544L224.37 176.568Z" fill="white"/>
<path d="M373.188 385.927C373.188 426.529 340.921 459.427 301.137 459.427C261.353 459.427 229.086 426.529 229.086 385.927C229.086 345.325 261.353 312.427 301.137 312.427C340.921 312.427 373.188 345.325 373.188 385.927Z" fill="#56504C" stroke="#FF6D65"/>
<path d="M246.606 396.972C246.606 395.697 245.886 394.812 244.866 394.437C245.766 394.107 246.441 393.222 246.441 392.097C246.441 390.312 245.151 389.247 243.291 389.247H239.271V399.927H243.426C245.316 399.927 246.606 398.907 246.606 396.972ZM245.466 396.942C245.466 398.142 244.641 398.907 243.321 398.907H240.411V394.992H243.321C244.641 394.992 245.466 395.742 245.466 396.942ZM245.301 392.112C245.301 393.387 244.386 393.972 243.201 393.972H240.411V390.267H243.201C244.386 390.267 245.301 390.837 245.301 392.112ZM250.175 399.927V392.547H249.095V399.927H250.175ZM250.25 390.447V389.232H249.035V390.447H250.25ZM258.334 400.152V392.547H257.269V393.417C256.669 392.637 256.009 392.457 255.199 392.457C254.449 392.457 253.789 392.712 253.399 393.102C252.664 393.837 252.499 394.977 252.499 396.177C252.499 397.377 252.664 398.517 253.399 399.252C253.789 399.642 254.434 399.912 255.184 399.912C255.979 399.912 256.654 399.717 257.254 398.952V400.107C257.254 401.367 256.654 402.372 255.229 402.372C254.374 402.372 253.999 402.117 253.459 401.637L252.754 402.327C253.534 403.032 254.149 403.317 255.259 403.317C257.194 403.317 258.334 401.982 258.334 400.152ZM257.254 396.177C257.254 397.557 257.029 398.937 255.424 398.937C253.819 398.937 253.579 397.557 253.579 396.177C253.579 394.797 253.819 393.417 255.424 393.417C257.029 393.417 257.254 394.797 257.254 396.177ZM272.374 394.467C272.374 392.982 272.434 391.347 271.324 390.237C270.679 389.592 269.734 389.247 268.624 389.247H264.964V399.927H268.624C269.734 399.927 270.679 399.582 271.324 398.937C272.434 397.827 272.374 395.952 272.374 394.467ZM271.234 394.467C271.234 395.772 271.264 397.362 270.529 398.127C269.974 398.697 269.254 398.907 268.429 398.907H266.104V390.267H268.429C269.254 390.267 269.974 390.477 270.529 391.047C271.264 391.812 271.234 393.162 271.234 394.467ZM280.127 399.927V394.917C280.127 393.312 279.152 392.457 277.172 392.457C275.972 392.457 275.222 392.697 274.562 393.552L275.297 394.227C275.732 393.612 276.212 393.387 277.157 393.387C278.507 393.387 279.047 393.927 279.047 395.007V395.712H276.827C275.177 395.712 274.277 396.552 274.277 397.842C274.277 398.427 274.472 398.982 274.832 399.342C275.297 399.822 275.897 400.017 276.917 400.017C277.907 400.017 278.447 399.822 279.047 399.222V399.927H280.127ZM279.047 397.317C279.047 397.932 278.927 398.352 278.672 398.592C278.207 399.042 277.652 399.087 277.022 399.087C275.852 399.087 275.327 398.682 275.327 397.827C275.327 396.972 275.867 396.522 276.977 396.522H279.047V397.317ZM285.592 399.927V398.997H285.022C284.332 398.997 284.017 398.592 284.017 397.917V393.417H285.592V392.592H284.017V390.282H282.937V392.592H282.007V393.417H282.937V397.947C282.937 399.042 283.567 399.927 284.827 399.927H285.592ZM292.886 399.927V394.917C292.886 393.312 291.911 392.457 289.931 392.457C288.731 392.457 287.981 392.697 287.321 393.552L288.056 394.227C288.491 393.612 288.971 393.387 289.916 393.387C291.266 393.387 291.806 393.927 291.806 395.007V395.712H289.586C287.936 395.712 287.036 396.552 287.036 397.842C287.036 398.427 287.231 398.982 287.591 399.342C288.056 399.822 288.656 400.017 289.676 400.017C290.666 400.017 291.206 399.822 291.806 399.222V399.927H292.886ZM291.806 397.317C291.806 397.932 291.686 398.352 291.431 398.592C290.966 399.042 290.411 399.087 289.781 399.087C288.611 399.087 288.086 398.682 288.086 397.827C288.086 396.972 288.626 396.522 289.736 396.522H291.806V397.317ZM306.781 396.972C306.781 395.697 306.061 394.812 305.041 394.437C305.941 394.107 306.616 393.222 306.616 392.097C306.616 390.312 305.326 389.247 303.466 389.247H299.446V399.927H303.601C305.491 399.927 306.781 398.907 306.781 396.972ZM305.641 396.942C305.641 398.142 304.816 398.907 303.496 398.907H300.586V394.992H303.496C304.816 394.992 305.641 395.742 305.641 396.942ZM305.476 392.112C305.476 393.387 304.561 393.972 303.376 393.972H300.586V390.267H303.376C304.561 390.267 305.476 390.837 305.476 392.112ZM314.926 396.522V396.027C314.926 393.837 313.801 392.457 311.896 392.457C310.021 392.457 308.866 393.852 308.866 396.237C308.866 398.847 310.141 400.017 312.091 400.017C313.351 400.017 314.041 399.627 314.791 398.877L314.056 398.232C313.471 398.817 312.976 399.072 312.121 399.072C310.711 399.072 309.946 398.142 309.946 396.522H314.926ZM313.846 395.712H309.946C309.976 395.112 310.006 394.887 310.171 394.482C310.456 393.807 311.116 393.372 311.896 393.372C312.676 393.372 313.336 393.807 313.621 394.482C313.786 394.887 313.816 395.112 313.846 395.712ZM323.03 399.927V395.187C323.03 393.522 322.04 392.457 320.375 392.457C319.55 392.457 318.845 392.742 318.305 393.357V389.247H317.225V399.927H318.305V395.367C318.305 394.092 319.04 393.417 320.15 393.417C321.26 393.417 321.95 394.077 321.95 395.367V399.927H323.03ZM330.913 399.927V394.917C330.913 393.312 329.938 392.457 327.958 392.457C326.758 392.457 326.008 392.697 325.348 393.552L326.083 394.227C326.518 393.612 326.998 393.387 327.943 393.387C329.293 393.387 329.833 393.927 329.833 395.007V395.712H327.613C325.963 395.712 325.063 396.552 325.063 397.842C325.063 398.427 325.258 398.982 325.618 399.342C326.083 399.822 326.683 400.017 327.703 400.017C328.693 400.017 329.233 399.822 329.833 399.222V399.927H330.913ZM329.833 397.317C329.833 397.932 329.713 398.352 329.458 398.592C328.993 399.042 328.438 399.087 327.808 399.087C326.638 399.087 326.113 398.682 326.113 397.827C326.113 396.972 326.653 396.522 327.763 396.522H329.833V397.317ZM338.733 392.547H337.563L335.538 398.472L333.528 392.547H332.358L335.058 399.927H336.018L338.733 392.547ZM341.332 399.927V392.547H340.252V399.927H341.332ZM341.407 390.447V389.232H340.192V390.447H341.407ZM349.686 396.237C349.686 395.097 349.536 394.062 348.786 393.297C348.276 392.787 347.571 392.457 346.671 392.457C345.771 392.457 345.066 392.787 344.556 393.297C343.806 394.062 343.656 395.097 343.656 396.237C343.656 397.377 343.806 398.412 344.556 399.177C345.066 399.687 345.771 400.017 346.671 400.017C347.571 400.017 348.276 399.687 348.786 399.177C349.536 398.412 349.686 397.377 349.686 396.237ZM348.606 396.237C348.606 397.062 348.561 397.977 348.021 398.517C347.676 398.862 347.196 399.057 346.671 399.057C346.146 399.057 345.681 398.862 345.336 398.517C344.796 397.977 344.736 397.062 344.736 396.237C344.736 395.412 344.796 394.497 345.336 393.957C345.681 393.612 346.146 393.417 346.671 393.417C347.196 393.417 347.676 393.612 348.021 393.957C348.561 394.497 348.606 395.412 348.606 396.237ZM357.73 399.927V392.547H356.65V397.092C356.65 398.382 355.915 399.057 354.805 399.057C353.695 399.057 353.005 398.397 353.005 397.092V392.547H351.925V397.257C351.925 398.112 352.15 398.817 352.675 399.327C353.125 399.777 353.785 400.017 354.58 400.017C355.405 400.017 356.14 399.702 356.665 399.102V399.927H357.73ZM365.343 393.147C364.818 392.622 364.278 392.457 363.573 392.457C362.718 392.457 361.908 392.832 361.503 393.447V392.547H360.423V399.927H361.503V395.397C361.503 394.272 362.193 393.417 363.273 393.417C363.843 393.417 364.143 393.552 364.548 393.957L365.343 393.147ZM270.671 417.927V412.917C270.671 411.312 269.696 410.457 267.716 410.457C266.516 410.457 265.766 410.697 265.106 411.552L265.841 412.227C266.276 411.612 266.756 411.387 267.701 411.387C269.051 411.387 269.591 411.927 269.591 413.007V413.712H267.371C265.721 413.712 264.821 414.552 264.821 415.842C264.821 416.427 265.016 416.982 265.376 417.342C265.841 417.822 266.441 418.017 267.461 418.017C268.451 418.017 268.991 417.822 269.591 417.222V417.927H270.671ZM269.591 415.317C269.591 415.932 269.471 416.352 269.216 416.592C268.751 417.042 268.196 417.087 267.566 417.087C266.396 417.087 265.871 416.682 265.871 415.827C265.871 414.972 266.411 414.522 267.521 414.522H269.591V415.317ZM279.107 417.927V413.202C279.107 412.347 278.867 411.657 278.342 411.147C277.892 410.697 277.247 410.457 276.452 410.457C275.627 410.457 274.907 410.757 274.382 411.357V410.547H273.302V417.927H274.382V413.382C274.382 412.092 275.102 411.417 276.212 411.417C277.322 411.417 278.027 412.077 278.027 413.382V417.927H279.107ZM287.2 417.927V407.247H286.12V411.402C285.52 410.637 284.845 410.457 284.035 410.457C283.285 410.457 282.625 410.712 282.235 411.102C281.485 411.852 281.335 413.082 281.335 414.237C281.335 415.392 281.485 416.622 282.235 417.372C282.625 417.762 283.285 418.017 284.035 418.017C284.845 418.017 285.535 417.822 286.135 417.042V417.927H287.2ZM286.12 414.237C286.12 415.677 285.88 417.057 284.275 417.057C282.67 417.057 282.415 415.677 282.415 414.237C282.415 412.797 282.67 411.417 284.275 411.417C285.88 411.417 286.12 412.797 286.12 414.237ZM301.239 412.467C301.239 410.982 301.299 409.347 300.189 408.237C299.544 407.592 298.599 407.247 297.489 407.247H293.829V417.927H297.489C298.599 417.927 299.544 417.582 300.189 416.937C301.299 415.827 301.239 413.952 301.239 412.467ZM300.099 412.467C300.099 413.772 300.129 415.362 299.394 416.127C298.839 416.697 298.119 416.907 297.294 416.907H294.969V408.267H297.294C298.119 408.267 298.839 408.477 299.394 409.047C300.129 409.812 300.099 411.162 300.099 412.467ZM304.807 417.927V410.547H303.727V417.927H304.807ZM304.882 408.447V407.232H303.667V408.447H304.882ZM312.965 418.152V410.547H311.9V411.417C311.3 410.637 310.64 410.457 309.83 410.457C309.08 410.457 308.42 410.712 308.03 411.102C307.295 411.837 307.13 412.977 307.13 414.177C307.13 415.377 307.295 416.517 308.03 417.252C308.42 417.642 309.065 417.912 309.815 417.912C310.61 417.912 311.285 417.717 311.885 416.952V418.107C311.885 419.367 311.285 420.372 309.86 420.372C309.005 420.372 308.63 420.117 308.09 419.637L307.385 420.327C308.165 421.032 308.78 421.317 309.89 421.317C311.825 421.317 312.965 419.982 312.965 418.152ZM311.885 414.177C311.885 415.557 311.66 416.937 310.055 416.937C308.45 416.937 308.21 415.557 308.21 414.177C308.21 412.797 308.45 411.417 310.055 411.417C311.66 411.417 311.885 412.797 311.885 414.177ZM316.745 417.927V410.547H315.665V417.927H316.745ZM316.82 408.447V407.232H315.605V408.447H316.82ZM322.294 417.927V416.997H321.724C321.034 416.997 320.719 416.592 320.719 415.917V411.417H322.294V410.592H320.719V408.282H319.639V410.592H318.709V411.417H319.639V415.947C319.639 417.042 320.269 417.927 321.529 417.927H322.294ZM329.587 417.927V412.917C329.587 411.312 328.612 410.457 326.632 410.457C325.432 410.457 324.682 410.697 324.022 411.552L324.757 412.227C325.192 411.612 325.672 411.387 326.617 411.387C327.967 411.387 328.507 411.927 328.507 413.007V413.712H326.287C324.637 413.712 323.737 414.552 323.737 415.842C323.737 416.427 323.932 416.982 324.292 417.342C324.757 417.822 325.357 418.017 326.377 418.017C327.367 418.017 327.907 417.822 328.507 417.222V417.927H329.587ZM328.507 415.317C328.507 415.932 328.387 416.352 328.132 416.592C327.667 417.042 327.112 417.087 326.482 417.087C325.312 417.087 324.787 416.682 324.787 415.827C324.787 414.972 325.327 414.522 326.437 414.522H328.507V415.317ZM334.843 417.927V416.997H334.258C333.508 416.997 333.268 416.637 333.268 415.917V407.247H332.188V415.962C332.188 417.087 332.773 417.927 334.063 417.927H334.843ZM284.546 432.987C284.546 432.102 284.231 431.367 283.646 430.872C283.196 430.482 282.701 430.272 281.696 430.122L280.526 429.942C279.971 429.852 279.416 429.642 279.086 429.357C278.756 429.072 278.606 428.652 278.606 428.127C278.606 426.942 279.431 426.147 280.856 426.147C281.981 426.147 282.686 426.462 283.346 427.062L284.081 426.327C283.166 425.502 282.266 425.157 280.901 425.157C278.786 425.157 277.481 426.357 277.481 428.172C277.481 429.027 277.751 429.687 278.291 430.167C278.756 430.572 279.416 430.842 280.256 430.977L281.501 431.172C282.281 431.292 282.551 431.382 282.896 431.682C283.241 431.982 283.406 432.462 283.406 433.017C283.406 434.262 282.446 434.997 280.886 434.997C279.686 434.997 278.861 434.712 277.976 433.827L277.196 434.607C278.201 435.612 279.251 436.017 280.856 436.017C283.076 436.017 284.546 434.862 284.546 432.987ZM292.389 432.522V432.027C292.389 429.837 291.264 428.457 289.359 428.457C287.484 428.457 286.329 429.852 286.329 432.237C286.329 434.847 287.604 436.017 289.554 436.017C290.814 436.017 291.504 435.627 292.254 434.877L291.519 434.232C290.934 434.817 290.439 435.072 289.584 435.072C288.174 435.072 287.409 434.142 287.409 432.522H292.389ZM291.309 431.712H287.409C287.439 431.112 287.469 430.887 287.634 430.482C287.919 429.807 288.579 429.372 289.359 429.372C290.139 429.372 290.799 429.807 291.084 430.482C291.249 430.887 291.279 431.112 291.309 431.712ZM299.953 435.927V430.917C299.953 429.312 298.978 428.457 296.998 428.457C295.798 428.457 295.048 428.697 294.388 429.552L295.123 430.227C295.558 429.612 296.038 429.387 296.983 429.387C298.333 429.387 298.873 429.927 298.873 431.007V431.712H296.653C295.003 431.712 294.103 432.552 294.103 433.842C294.103 434.427 294.298 434.982 294.658 435.342C295.123 435.822 295.723 436.017 296.743 436.017C297.733 436.017 298.273 435.822 298.873 435.222V435.927H299.953ZM298.873 433.317C298.873 433.932 298.753 434.352 298.498 434.592C298.033 435.042 297.478 435.087 296.848 435.087C295.678 435.087 295.153 434.682 295.153 433.827C295.153 432.972 295.693 432.522 296.803 432.522H298.873V433.317ZM307.504 429.147C306.979 428.622 306.439 428.457 305.734 428.457C304.879 428.457 304.069 428.832 303.664 429.447V428.547H302.584V435.927H303.664V431.397C303.664 430.272 304.354 429.417 305.434 429.417C306.004 429.417 306.304 429.552 306.709 429.957L307.504 429.147ZM313.68 434.922L312.945 434.217C312.39 434.832 311.955 435.057 311.25 435.057C310.53 435.057 309.93 434.772 309.54 434.217C309.195 433.737 309.06 433.167 309.06 432.237C309.06 431.307 309.195 430.737 309.54 430.257C309.93 429.702 310.53 429.417 311.25 429.417C311.955 429.417 312.39 429.627 312.945 430.242L313.68 429.552C312.915 428.727 312.27 428.457 311.25 428.457C309.39 428.457 307.98 429.717 307.98 432.237C307.98 434.757 309.39 436.017 311.25 436.017C312.27 436.017 312.915 435.747 313.68 434.922ZM321.543 435.927V431.187C321.543 429.522 320.553 428.457 318.888 428.457C318.063 428.457 317.358 428.742 316.818 429.357V425.247H315.738V435.927H316.818V431.367C316.818 430.092 317.553 429.417 318.663 429.417C319.773 429.417 320.463 430.077 320.463 431.367V435.927H321.543Z" fill="white"/>
<path d="M296.28 342.389C296.28 344.939 294.259 346.97 291.809 346.97C289.359 346.97 287.338 344.939 287.338 342.389C287.338 339.838 289.359 337.807 291.809 337.807C294.259 337.807 296.28 339.838 296.28 342.389Z" fill="#56504C" stroke="#FF6D65" stroke-width="2.11309"/>
<path d="M300.101 356.484C300.101 351.813 296.388 348.027 291.809 348.027C287.23 348.027 283.517 351.813 283.517 356.484" stroke="#FF6D65" stroke-width="2.11309"/>
<path d="M312.863 342.389C312.863 344.939 310.842 346.97 308.392 346.97C305.942 346.97 303.921 344.939 303.921 342.389C303.921 339.838 305.942 337.807 308.392 337.807C310.842 337.807 312.863 339.838 312.863 342.389Z" fill="#56504C" stroke="#FF6D65" stroke-width="2.11309"/>
<path d="M316.684 356.484C316.684 351.813 312.971 348.027 308.392 348.027C303.813 348.027 300.101 351.813 300.101 356.484" stroke="#FF6D65" stroke-width="2.11309"/>
<path d="M304.572 352.255C304.572 354.805 302.55 356.837 300.1 356.837C297.651 356.837 295.629 354.805 295.629 352.255C295.629 349.705 297.651 347.674 300.1 347.674C302.55 347.674 304.572 349.705 304.572 352.255Z" fill="#56504C" stroke="#FF6D65" stroke-width="2.11309"/>
<path d="M308.392 366.35C308.392 361.68 304.68 357.893 300.101 357.893C295.521 357.893 291.809 361.68 291.809 366.35" stroke="#FF6D65" stroke-width="2.11309"/>
<circle cx="97.6885" cy="385.927" r="73.5" fill="#56504C" stroke="#FF6D65"/>
<path d="M84.9579 399.988C84.9579 399.103 84.6429 398.368 84.0579 397.873C83.6079 397.483 83.1129 397.273 82.1079 397.123L80.9379 396.943C80.3829 396.853 79.8279 396.643 79.4979 396.358C79.1679 396.073 79.0179 395.653 79.0179 395.128C79.0179 393.943 79.8429 393.148 81.2679 393.148C82.3929 393.148 83.0979 393.463 83.7579 394.063L84.4929 393.328C83.5779 392.503 82.6779 392.158 81.3129 392.158C79.1979 392.158 77.8929 393.358 77.8929 395.173C77.8929 396.028 78.1629 396.688 78.7029 397.168C79.1679 397.573 79.8279 397.843 80.6679 397.978L81.9129 398.173C82.6929 398.293 82.9629 398.383 83.3079 398.683C83.6529 398.983 83.8179 399.463 83.8179 400.018C83.8179 401.263 82.8579 401.998 81.2979 401.998C80.0979 401.998 79.2729 401.713 78.3879 400.828L77.6079 401.608C78.6129 402.613 79.6629 403.018 81.2679 403.018C83.4879 403.018 84.9579 401.863 84.9579 399.988ZM92.7862 399.238C92.7862 398.098 92.6362 397.063 91.8862 396.298C91.3762 395.788 90.6712 395.458 89.7712 395.458C88.8712 395.458 88.1662 395.788 87.6562 396.298C86.9062 397.063 86.7562 398.098 86.7562 399.238C86.7562 400.378 86.9062 401.413 87.6562 402.178C88.1662 402.688 88.8712 403.018 89.7712 403.018C90.6712 403.018 91.3762 402.688 91.8862 402.178C92.6362 401.413 92.7862 400.378 92.7862 399.238ZM91.7062 399.238C91.7062 400.063 91.6612 400.978 91.1212 401.518C90.7762 401.863 90.2962 402.058 89.7712 402.058C89.2462 402.058 88.7812 401.863 88.4362 401.518C87.8962 400.978 87.8362 400.063 87.8362 399.238C87.8362 398.413 87.8962 397.498 88.4362 396.958C88.7812 396.613 89.2462 396.418 89.7712 396.418C90.2962 396.418 90.7762 396.613 91.1212 396.958C91.6612 397.498 91.7062 398.413 91.7062 399.238ZM100.395 401.923L99.6603 401.218C99.1053 401.833 98.6703 402.058 97.9653 402.058C97.2453 402.058 96.6453 401.773 96.2553 401.218C95.9103 400.738 95.7753 400.168 95.7753 399.238C95.7753 398.308 95.9103 397.738 96.2553 397.258C96.6453 396.703 97.2453 396.418 97.9653 396.418C98.6703 396.418 99.1053 396.628 99.6603 397.243L100.395 396.553C99.6303 395.728 98.9853 395.458 97.9653 395.458C96.1053 395.458 94.6953 396.718 94.6953 399.238C94.6953 401.758 96.1053 403.018 97.9653 403.018C98.9853 403.018 99.6303 402.748 100.395 401.923ZM103.534 402.928V395.548H102.454V402.928H103.534ZM103.609 393.448V392.233H102.394V393.448H103.609ZM111.513 402.928V397.918C111.513 396.313 110.538 395.458 108.558 395.458C107.358 395.458 106.608 395.698 105.948 396.553L106.683 397.228C107.118 396.613 107.598 396.388 108.543 396.388C109.893 396.388 110.433 396.928 110.433 398.008V398.713H108.213C106.563 398.713 105.663 399.553 105.663 400.843C105.663 401.428 105.858 401.983 106.218 402.343C106.683 402.823 107.283 403.018 108.303 403.018C109.293 403.018 109.833 402.823 110.433 402.223V402.928H111.513ZM110.433 400.318C110.433 400.933 110.313 401.353 110.058 401.593C109.593 402.043 109.038 402.088 108.408 402.088C107.238 402.088 106.713 401.683 106.713 400.828C106.713 399.973 107.253 399.523 108.363 399.523H110.433V400.318ZM116.768 402.928V401.998H116.183C115.433 401.998 115.193 401.638 115.193 400.918V392.248H114.113V400.963C114.113 402.088 114.698 402.928 115.988 402.928H116.768ZM74.6126 420.928V419.908H69.1526V410.248H68.0126V420.928H74.6126ZM77.4962 420.928V413.548H76.4162V420.928H77.4962ZM77.5712 411.448V410.233H76.3562V411.448H77.5712ZM85.5352 418.768C85.5352 417.388 84.6502 416.893 83.3602 416.773L82.1752 416.668C81.2452 416.593 80.8852 416.218 80.8852 415.588C80.8852 414.838 81.4552 414.373 82.5352 414.373C83.3002 414.373 83.9752 414.553 84.5002 414.958L85.2052 414.253C84.5452 413.713 83.6002 413.458 82.5502 413.458C80.9752 413.458 79.8352 414.268 79.8352 415.618C79.8352 416.833 80.6002 417.478 82.0402 417.598L83.2552 417.703C84.1102 417.778 84.4852 418.138 84.4852 418.783C84.4852 419.653 83.7352 420.088 82.5202 420.088C81.6052 420.088 80.8102 419.848 80.2252 419.233L79.5052 419.953C80.3152 420.733 81.2902 421.018 82.5352 421.018C84.3202 421.018 85.5352 420.193 85.5352 418.768ZM90.3401 420.928V419.998H89.7701C89.0801 419.998 88.7651 419.593 88.7651 418.918V414.418H90.3401V413.593H88.7651V411.283H87.6851V413.593H86.7551V414.418H87.6851V418.948C87.6851 420.043 88.3151 420.928 89.5751 420.928H90.3401ZM98.0234 417.523V417.028C98.0234 414.838 96.8984 413.458 94.9934 413.458C93.1184 413.458 91.9634 414.853 91.9634 417.238C91.9634 419.848 93.2384 421.018 95.1884 421.018C96.4484 421.018 97.1384 420.628 97.8884 419.878L97.1534 419.233C96.5684 419.818 96.0734 420.073 95.2184 420.073C93.8084 420.073 93.0434 419.143 93.0434 417.523H98.0234ZM96.9434 416.713H93.0434C93.0734 416.113 93.1034 415.888 93.2684 415.483C93.5534 414.808 94.2134 414.373 94.9934 414.373C95.7734 414.373 96.4334 414.808 96.7184 415.483C96.8834 415.888 96.9134 416.113 96.9434 416.713ZM106.127 420.928V416.203C106.127 415.348 105.887 414.658 105.362 414.148C104.912 413.698 104.267 413.458 103.472 413.458C102.647 413.458 101.927 413.758 101.402 414.358V413.548H100.322V420.928H101.402V416.383C101.402 415.093 102.122 414.418 103.232 414.418C104.342 414.418 105.047 415.078 105.047 416.383V420.928H106.127ZM109.825 420.928V413.548H108.745V420.928H109.825ZM109.9 411.448V410.233H108.685V411.448H109.9ZM118.344 420.928V416.203C118.344 415.348 118.104 414.658 117.579 414.148C117.129 413.698 116.484 413.458 115.689 413.458C114.864 413.458 114.144 413.758 113.619 414.358V413.548H112.539V420.928H113.619V416.383C113.619 415.093 114.339 414.418 115.449 414.418C116.559 414.418 117.264 415.078 117.264 416.383V420.928H118.344ZM126.407 421.153V413.548H125.342V414.418C124.742 413.638 124.082 413.458 123.272 413.458C122.522 413.458 121.862 413.713 121.472 414.103C120.737 414.838 120.572 415.978 120.572 417.178C120.572 418.378 120.737 419.518 121.472 420.253C121.862 420.643 122.507 420.913 123.257 420.913C124.052 420.913 124.727 420.718 125.327 419.953V421.108C125.327 422.368 124.727 423.373 123.302 423.373C122.447 423.373 122.072 423.118 121.532 422.638L120.827 423.328C121.607 424.033 122.222 424.318 123.332 424.318C125.267 424.318 126.407 422.983 126.407 421.153ZM125.327 417.178C125.327 418.558 125.102 419.938 123.497 419.938C121.892 419.938 121.652 418.558 121.652 417.178C121.652 415.798 121.892 414.418 123.497 414.418C125.102 414.418 125.327 415.798 125.327 417.178Z" fill="white"/>
<path d="M95.3302 366.59C93.9895 366.59 92.9726 367.708 92.9726 369C92.9726 370.291 93.9895 371.409 95.3302 371.409H97.9324C99.2732 371.409 100.29 370.291 100.29 369C100.29 367.708 99.2732 366.59 97.9324 366.59H95.3302Z" stroke="#FF6D65" stroke-width="2.11309"/>
<circle cx="199" cy="508" r="73.5" fill="#56504C" stroke="#FF6D65"/>
<path d="M168.663 515.341V514.321H161.343V515.341H164.433V525.001H165.573V515.341H168.663ZM174.973 521.596V521.101C174.973 518.911 173.848 517.531 171.943 517.531C170.068 517.531 168.913 518.926 168.913 521.311C168.913 523.921 170.188 525.091 172.138 525.091C173.398 525.091 174.088 524.701 174.838 523.951L174.103 523.306C173.518 523.891 173.023 524.146 172.168 524.146C170.758 524.146 169.993 523.216 169.993 521.596H174.973ZM173.893 520.786H169.993C170.023 520.186 170.053 519.961 170.218 519.556C170.503 518.881 171.163 518.446 171.943 518.446C172.723 518.446 173.383 518.881 173.668 519.556C173.833 519.961 173.863 520.186 173.893 520.786ZM183.077 525.001V520.276C183.077 519.421 182.837 518.731 182.312 518.221C181.862 517.771 181.217 517.531 180.422 517.531C179.597 517.531 178.877 517.831 178.352 518.431V517.621H177.272V525.001H178.352V520.456C178.352 519.166 179.072 518.491 180.182 518.491C181.292 518.491 181.997 519.151 181.997 520.456V525.001H183.077ZM191.17 525.001V514.321H190.09V518.476C189.49 517.711 188.815 517.531 188.005 517.531C187.255 517.531 186.595 517.786 186.205 518.176C185.455 518.926 185.305 520.156 185.305 521.311C185.305 522.466 185.455 523.696 186.205 524.446C186.595 524.836 187.255 525.091 188.005 525.091C188.815 525.091 189.505 524.896 190.105 524.116V525.001H191.17ZM190.09 521.311C190.09 522.751 189.85 524.131 188.245 524.131C186.64 524.131 186.385 522.751 186.385 521.311C186.385 519.871 186.64 518.491 188.245 518.491C189.85 518.491 190.09 519.871 190.09 521.311ZM199.524 521.596V521.101C199.524 518.911 198.399 517.531 196.494 517.531C194.619 517.531 193.464 518.926 193.464 521.311C193.464 523.921 194.739 525.091 196.689 525.091C197.949 525.091 198.639 524.701 199.389 523.951L198.654 523.306C198.069 523.891 197.574 524.146 196.719 524.146C195.309 524.146 194.544 523.216 194.544 521.596H199.524ZM198.444 520.786H194.544C194.574 520.186 194.604 519.961 194.769 519.556C195.054 518.881 195.714 518.446 196.494 518.446C197.274 518.446 197.934 518.881 198.219 519.556C198.384 519.961 198.414 520.186 198.444 520.786ZM198.924 516.091L197.049 513.796H196.029L194.154 516.091H195.189L196.539 514.531L197.889 516.091H198.924ZM207.628 525.001V520.276C207.628 519.421 207.388 518.731 206.863 518.221C206.413 517.771 205.768 517.531 204.973 517.531C204.148 517.531 203.428 517.831 202.903 518.431V517.621H201.823V525.001H202.903V520.456C202.903 519.166 203.623 518.491 204.733 518.491C205.843 518.491 206.548 519.151 206.548 520.456V525.001H207.628ZM215.541 523.996L214.806 523.291C214.251 523.906 213.816 524.131 213.111 524.131C212.391 524.131 211.791 523.846 211.401 523.291C211.056 522.811 210.921 522.241 210.921 521.311C210.921 520.381 211.056 519.811 211.401 519.331C211.791 518.776 212.391 518.491 213.111 518.491C213.816 518.491 214.251 518.701 214.806 519.316L215.541 518.626C214.776 517.801 214.131 517.531 213.111 517.531C211.251 517.531 209.841 518.791 209.841 521.311C209.841 523.831 211.251 525.091 213.111 525.091C214.131 525.091 214.776 524.821 215.541 523.996ZM218.679 525.001V517.621H217.599V525.001H218.679ZM218.754 515.521V514.306H217.539V515.521H218.754ZM226.658 525.001V519.991C226.658 518.386 225.683 517.531 223.703 517.531C222.503 517.531 221.753 517.771 221.093 518.626L221.828 519.301C222.263 518.686 222.743 518.461 223.688 518.461C225.038 518.461 225.578 519.001 225.578 520.081V520.786H223.358C221.708 520.786 220.808 521.626 220.808 522.916C220.808 523.501 221.003 524.056 221.363 524.416C221.828 524.896 222.428 525.091 223.448 525.091C224.438 525.091 224.978 524.896 225.578 524.296V525.001H226.658ZM225.578 522.391C225.578 523.006 225.458 523.426 225.203 523.666C224.738 524.116 224.183 524.161 223.553 524.161C222.383 524.161 221.858 523.756 221.858 522.901C221.858 522.046 222.398 521.596 223.508 521.596H225.578V522.391ZM234.614 522.841C234.614 521.461 233.729 520.966 232.439 520.846L231.254 520.741C230.324 520.666 229.964 520.291 229.964 519.661C229.964 518.911 230.534 518.446 231.614 518.446C232.379 518.446 233.054 518.626 233.579 519.031L234.284 518.326C233.624 517.786 232.679 517.531 231.629 517.531C230.054 517.531 228.914 518.341 228.914 519.691C228.914 520.906 229.679 521.551 231.119 521.671L232.334 521.776C233.189 521.851 233.564 522.211 233.564 522.856C233.564 523.726 232.814 524.161 231.599 524.161C230.684 524.161 229.889 523.921 229.304 523.306L228.584 524.026C229.394 524.806 230.369 525.091 231.614 525.091C233.399 525.091 234.614 524.266 234.614 522.841Z" fill="white"/>
<path d="M185 488.538V473.462C185 469.893 187.893 467 191.462 467H206.538C210.107 467 213 469.893 213 473.462V488.538C213 492.107 210.107 495 206.538 495H191.462C187.893 495 185 492.107 185 488.538ZM185 488.538L193.615 479.923L199 483.154L202.769 479.385L206.538 475.615M200.077 475.615H206.538M206.538 475.615V482.077" stroke="#FF6D65" stroke-width="2"/>
</svg>
 -->

<svg width="375" height="582" viewBox="0 0 375 582" fill="none" xmlns="http://www.w3.org/2000/svg">
<path opacity="0.1" d="M328.672 422.09C250.967 499.794 124.983 499.794 47.2784 422.09C-30.4261 344.385 -30.4261 218.401 47.2784 140.697L187.975 0L328.672 140.697C406.376 218.401 406.376 344.385 328.672 422.09Z" fill="#FF6D65"/>
<path opacity="0.2" d="M249.304 185.799C215.133 219.97 159.731 219.97 125.56 185.799C91.3894 151.628 91.3894 96.226 125.56 62.0552L187.432 0.183319L249.304 62.0552C283.475 96.226 283.475 151.628 249.304 185.799Z" fill="#FF6D65"/>
<path d="M147.228 286.478C147.228 284.438 146.076 283.022 144.444 282.422C145.884 281.894 146.964 280.478 146.964 278.678C146.964 275.822 144.9 274.118 141.924 274.118H135.492V291.206H142.14C145.164 291.206 147.228 289.574 147.228 286.478ZM145.404 286.43C145.404 288.35 144.084 289.574 141.972 289.574H137.316V283.31H141.972C144.084 283.31 145.404 284.51 145.404 286.43ZM145.14 278.702C145.14 280.742 143.676 281.678 141.78 281.678H137.316V275.75H141.78C143.676 275.75 145.14 276.662 145.14 278.702ZM154.547 291.206V274.118H152.723V291.206H154.547ZM172.048 284.966V282.254H166.024V283.862H170.224V285.158C170.224 286.478 169.96 287.414 169.264 288.254C168.472 289.214 167.272 289.718 166.024 289.718C164.896 289.718 163.816 289.286 163.072 288.518C161.992 287.414 161.872 286.238 161.872 282.662C161.872 279.086 161.992 277.934 163.072 276.83C163.816 276.062 164.896 275.606 166.024 275.606C168.16 275.606 169.696 276.926 170.176 279.086H172C171.496 276.086 169.288 273.974 166.024 273.974C164.32 273.974 162.808 274.598 161.656 275.75C160.048 277.358 160.048 279.038 160.048 282.662C160.048 286.286 160.048 287.966 161.656 289.574C162.808 290.726 164.344 291.35 166.024 291.35C167.776 291.35 169.384 290.678 170.584 289.382C171.64 288.254 172.048 286.934 172.048 284.966ZM196.538 282.47C196.538 280.094 196.634 277.478 194.858 275.702C193.826 274.67 192.314 274.118 190.538 274.118H184.682V291.206H190.538C192.314 291.206 193.826 290.654 194.858 289.622C196.634 287.846 196.538 284.846 196.538 282.47ZM194.714 282.47C194.714 284.558 194.762 287.102 193.586 288.326C192.698 289.238 191.546 289.574 190.226 289.574H186.506V275.75H190.226C191.546 275.75 192.698 276.086 193.586 276.998C194.762 278.222 194.714 280.382 194.714 282.47ZM213.7 291.206L207.436 274.118H205.9L199.612 291.206H201.556L202.924 287.342H210.388L211.756 291.206H213.7ZM209.86 285.758H203.476L206.692 276.734L209.86 285.758ZM226.199 275.75V274.118H214.487V275.75H219.431V291.206H221.255V275.75H226.199ZM241.061 291.206L234.797 274.118H233.261L226.973 291.206H228.917L230.285 287.342H237.749L239.117 291.206H241.061ZM237.221 285.758H230.837L234.053 276.734L237.221 285.758Z" fill="white"/>
<path d="M160.355 143.312C160.355 141.896 159.851 140.72 158.915 139.928C158.195 139.304 157.403 138.968 155.795 138.728L153.923 138.44C153.035 138.296 152.147 137.96 151.619 137.504C151.091 137.048 150.851 136.376 150.851 135.536C150.851 133.64 152.171 132.368 154.451 132.368C156.251 132.368 157.379 132.872 158.435 133.832L159.611 132.656C158.147 131.336 156.707 130.784 154.523 130.784C151.139 130.784 149.051 132.704 149.051 135.608C149.051 136.976 149.483 138.032 150.347 138.8C151.091 139.448 152.147 139.88 153.491 140.096L155.483 140.408C156.731 140.6 157.163 140.744 157.715 141.224C158.267 141.704 158.531 142.472 158.531 143.36C158.531 145.352 156.995 146.528 154.499 146.528C152.579 146.528 151.259 146.072 149.843 144.656L148.595 145.904C150.203 147.512 151.883 148.16 154.451 148.16C158.003 148.16 160.355 146.312 160.355 143.312ZM180.008 148.016V130.928H178.184L172.76 143.048L167.192 130.928H165.368V148.016H167.192V135.032L171.944 145.328H173.504L178.184 135.032V148.016H180.008ZM198.066 148.016L191.802 130.928H190.266L183.978 148.016H185.922L187.29 144.152H194.754L196.122 148.016H198.066ZM194.226 142.568H187.842L191.058 133.544L194.226 142.568ZM212.594 148.016V146.384H203.858V130.928H202.034V148.016H212.594ZM227.552 148.016V146.384H218.816V130.928H216.992V148.016H227.552ZM172.687 173.28C172.687 170.904 172.783 168.288 171.007 166.512C169.975 165.48 168.463 164.928 166.687 164.928H160.831V182.016H166.687C168.463 182.016 169.975 181.464 171.007 180.432C172.783 178.656 172.687 175.656 172.687 173.28ZM170.863 173.28C170.863 175.368 170.911 177.912 169.735 179.136C168.847 180.048 167.695 180.384 166.375 180.384H162.655V166.56H166.375C167.695 166.56 168.847 166.896 169.735 167.808C170.911 169.032 170.863 171.192 170.863 173.28ZM189.849 182.016L183.585 164.928H182.049L175.761 182.016H177.705L179.073 178.152H186.537L187.905 182.016H189.849ZM186.009 176.568H179.625L182.841 167.544L186.009 176.568ZM202.347 166.56V164.928H190.635V166.56H195.579V182.016H197.403V166.56H202.347ZM217.21 182.016L210.946 164.928H209.41L203.122 182.016H205.066L206.434 178.152H213.898L215.266 182.016H217.21ZM213.37 176.568H206.986L210.202 167.544L213.37 176.568Z" fill="white"/>
<path d="M362.188 385.927C362.188 426.529 329.921 459.427 290.137 459.427C250.353 459.427 218.086 426.529 218.086 385.927C218.086 345.325 250.353 312.427 290.137 312.427C329.921 312.427 362.188 345.325 362.188 385.927Z" fill="#56504C" stroke="#FF6D65"/>
<path d="M235.606 396.972C235.606 395.697 234.886 394.812 233.866 394.437C234.766 394.107 235.441 393.222 235.441 392.097C235.441 390.312 234.151 389.247 232.291 389.247H228.271V399.927H232.426C234.316 399.927 235.606 398.907 235.606 396.972ZM234.466 396.942C234.466 398.142 233.641 398.907 232.321 398.907H229.411V394.992H232.321C233.641 394.992 234.466 395.742 234.466 396.942ZM234.301 392.112C234.301 393.387 233.386 393.972 232.201 393.972H229.411V390.267H232.201C233.386 390.267 234.301 390.837 234.301 392.112ZM239.175 399.927V392.547H238.095V399.927H239.175ZM239.25 390.447V389.232H238.035V390.447H239.25ZM247.334 400.152V392.547H246.269V393.417C245.669 392.637 245.009 392.457 244.199 392.457C243.449 392.457 242.789 392.712 242.399 393.102C241.664 393.837 241.499 394.977 241.499 396.177C241.499 397.377 241.664 398.517 242.399 399.252C242.789 399.642 243.434 399.912 244.184 399.912C244.979 399.912 245.654 399.717 246.254 398.952V400.107C246.254 401.367 245.654 402.372 244.229 402.372C243.374 402.372 242.999 402.117 242.459 401.637L241.754 402.327C242.534 403.032 243.149 403.317 244.259 403.317C246.194 403.317 247.334 401.982 247.334 400.152ZM246.254 396.177C246.254 397.557 246.029 398.937 244.424 398.937C242.819 398.937 242.579 397.557 242.579 396.177C242.579 394.797 242.819 393.417 244.424 393.417C246.029 393.417 246.254 394.797 246.254 396.177ZM261.374 394.467C261.374 392.982 261.434 391.347 260.324 390.237C259.679 389.592 258.734 389.247 257.624 389.247H253.964V399.927H257.624C258.734 399.927 259.679 399.582 260.324 398.937C261.434 397.827 261.374 395.952 261.374 394.467ZM260.234 394.467C260.234 395.772 260.264 397.362 259.529 398.127C258.974 398.697 258.254 398.907 257.429 398.907H255.104V390.267H257.429C258.254 390.267 258.974 390.477 259.529 391.047C260.264 391.812 260.234 393.162 260.234 394.467ZM269.127 399.927V394.917C269.127 393.312 268.152 392.457 266.172 392.457C264.972 392.457 264.222 392.697 263.562 393.552L264.297 394.227C264.732 393.612 265.212 393.387 266.157 393.387C267.507 393.387 268.047 393.927 268.047 395.007V395.712H265.827C264.177 395.712 263.277 396.552 263.277 397.842C263.277 398.427 263.472 398.982 263.832 399.342C264.297 399.822 264.897 400.017 265.917 400.017C266.907 400.017 267.447 399.822 268.047 399.222V399.927H269.127ZM268.047 397.317C268.047 397.932 267.927 398.352 267.672 398.592C267.207 399.042 266.652 399.087 266.022 399.087C264.852 399.087 264.327 398.682 264.327 397.827C264.327 396.972 264.867 396.522 265.977 396.522H268.047V397.317ZM274.592 399.927V398.997H274.022C273.332 398.997 273.017 398.592 273.017 397.917V393.417H274.592V392.592H273.017V390.282H271.937V392.592H271.007V393.417H271.937V397.947C271.937 399.042 272.567 399.927 273.827 399.927H274.592ZM281.886 399.927V394.917C281.886 393.312 280.911 392.457 278.931 392.457C277.731 392.457 276.981 392.697 276.321 393.552L277.056 394.227C277.491 393.612 277.971 393.387 278.916 393.387C280.266 393.387 280.806 393.927 280.806 395.007V395.712H278.586C276.936 395.712 276.036 396.552 276.036 397.842C276.036 398.427 276.231 398.982 276.591 399.342C277.056 399.822 277.656 400.017 278.676 400.017C279.666 400.017 280.206 399.822 280.806 399.222V399.927H281.886ZM280.806 397.317C280.806 397.932 280.686 398.352 280.431 398.592C279.966 399.042 279.411 399.087 278.781 399.087C277.611 399.087 277.086 398.682 277.086 397.827C277.086 396.972 277.626 396.522 278.736 396.522H280.806V397.317ZM295.781 396.972C295.781 395.697 295.061 394.812 294.041 394.437C294.941 394.107 295.616 393.222 295.616 392.097C295.616 390.312 294.326 389.247 292.466 389.247H288.446V399.927H292.601C294.491 399.927 295.781 398.907 295.781 396.972ZM294.641 396.942C294.641 398.142 293.816 398.907 292.496 398.907H289.586V394.992H292.496C293.816 394.992 294.641 395.742 294.641 396.942ZM294.476 392.112C294.476 393.387 293.561 393.972 292.376 393.972H289.586V390.267H292.376C293.561 390.267 294.476 390.837 294.476 392.112ZM303.926 396.522V396.027C303.926 393.837 302.801 392.457 300.896 392.457C299.021 392.457 297.866 393.852 297.866 396.237C297.866 398.847 299.141 400.017 301.091 400.017C302.351 400.017 303.041 399.627 303.791 398.877L303.056 398.232C302.471 398.817 301.976 399.072 301.121 399.072C299.711 399.072 298.946 398.142 298.946 396.522H303.926ZM302.846 395.712H298.946C298.976 395.112 299.006 394.887 299.171 394.482C299.456 393.807 300.116 393.372 300.896 393.372C301.676 393.372 302.336 393.807 302.621 394.482C302.786 394.887 302.816 395.112 302.846 395.712ZM312.03 399.927V395.187C312.03 393.522 311.04 392.457 309.375 392.457C308.55 392.457 307.845 392.742 307.305 393.357V389.247H306.225V399.927H307.305V395.367C307.305 394.092 308.04 393.417 309.15 393.417C310.26 393.417 310.95 394.077 310.95 395.367V399.927H312.03ZM319.913 399.927V394.917C319.913 393.312 318.938 392.457 316.958 392.457C315.758 392.457 315.008 392.697 314.348 393.552L315.083 394.227C315.518 393.612 315.998 393.387 316.943 393.387C318.293 393.387 318.833 393.927 318.833 395.007V395.712H316.613C314.963 395.712 314.063 396.552 314.063 397.842C314.063 398.427 314.258 398.982 314.618 399.342C315.083 399.822 315.683 400.017 316.703 400.017C317.693 400.017 318.233 399.822 318.833 399.222V399.927H319.913ZM318.833 397.317C318.833 397.932 318.713 398.352 318.458 398.592C317.993 399.042 317.438 399.087 316.808 399.087C315.638 399.087 315.113 398.682 315.113 397.827C315.113 396.972 315.653 396.522 316.763 396.522H318.833V397.317ZM327.733 392.547H326.563L324.538 398.472L322.528 392.547H321.358L324.058 399.927H325.018L327.733 392.547ZM330.332 399.927V392.547H329.252V399.927H330.332ZM330.407 390.447V389.232H329.192V390.447H330.407ZM338.686 396.237C338.686 395.097 338.536 394.062 337.786 393.297C337.276 392.787 336.571 392.457 335.671 392.457C334.771 392.457 334.066 392.787 333.556 393.297C332.806 394.062 332.656 395.097 332.656 396.237C332.656 397.377 332.806 398.412 333.556 399.177C334.066 399.687 334.771 400.017 335.671 400.017C336.571 400.017 337.276 399.687 337.786 399.177C338.536 398.412 338.686 397.377 338.686 396.237ZM337.606 396.237C337.606 397.062 337.561 397.977 337.021 398.517C336.676 398.862 336.196 399.057 335.671 399.057C335.146 399.057 334.681 398.862 334.336 398.517C333.796 397.977 333.736 397.062 333.736 396.237C333.736 395.412 333.796 394.497 334.336 393.957C334.681 393.612 335.146 393.417 335.671 393.417C336.196 393.417 336.676 393.612 337.021 393.957C337.561 394.497 337.606 395.412 337.606 396.237ZM346.73 399.927V392.547H345.65V397.092C345.65 398.382 344.915 399.057 343.805 399.057C342.695 399.057 342.005 398.397 342.005 397.092V392.547H340.925V397.257C340.925 398.112 341.15 398.817 341.675 399.327C342.125 399.777 342.785 400.017 343.58 400.017C344.405 400.017 345.14 399.702 345.665 399.102V399.927H346.73ZM354.343 393.147C353.818 392.622 353.278 392.457 352.573 392.457C351.718 392.457 350.908 392.832 350.503 393.447V392.547H349.423V399.927H350.503V395.397C350.503 394.272 351.193 393.417 352.273 393.417C352.843 393.417 353.143 393.552 353.548 393.957L354.343 393.147ZM259.671 417.927V412.917C259.671 411.312 258.696 410.457 256.716 410.457C255.516 410.457 254.766 410.697 254.106 411.552L254.841 412.227C255.276 411.612 255.756 411.387 256.701 411.387C258.051 411.387 258.591 411.927 258.591 413.007V413.712H256.371C254.721 413.712 253.821 414.552 253.821 415.842C253.821 416.427 254.016 416.982 254.376 417.342C254.841 417.822 255.441 418.017 256.461 418.017C257.451 418.017 257.991 417.822 258.591 417.222V417.927H259.671ZM258.591 415.317C258.591 415.932 258.471 416.352 258.216 416.592C257.751 417.042 257.196 417.087 256.566 417.087C255.396 417.087 254.871 416.682 254.871 415.827C254.871 414.972 255.411 414.522 256.521 414.522H258.591V415.317ZM268.107 417.927V413.202C268.107 412.347 267.867 411.657 267.342 411.147C266.892 410.697 266.247 410.457 265.452 410.457C264.627 410.457 263.907 410.757 263.382 411.357V410.547H262.302V417.927H263.382V413.382C263.382 412.092 264.102 411.417 265.212 411.417C266.322 411.417 267.027 412.077 267.027 413.382V417.927H268.107ZM276.2 417.927V407.247H275.12V411.402C274.52 410.637 273.845 410.457 273.035 410.457C272.285 410.457 271.625 410.712 271.235 411.102C270.485 411.852 270.335 413.082 270.335 414.237C270.335 415.392 270.485 416.622 271.235 417.372C271.625 417.762 272.285 418.017 273.035 418.017C273.845 418.017 274.535 417.822 275.135 417.042V417.927H276.2ZM275.12 414.237C275.12 415.677 274.88 417.057 273.275 417.057C271.67 417.057 271.415 415.677 271.415 414.237C271.415 412.797 271.67 411.417 273.275 411.417C274.88 411.417 275.12 412.797 275.12 414.237ZM290.239 412.467C290.239 410.982 290.299 409.347 289.189 408.237C288.544 407.592 287.599 407.247 286.489 407.247H282.829V417.927H286.489C287.599 417.927 288.544 417.582 289.189 416.937C290.299 415.827 290.239 413.952 290.239 412.467ZM289.099 412.467C289.099 413.772 289.129 415.362 288.394 416.127C287.839 416.697 287.119 416.907 286.294 416.907H283.969V408.267H286.294C287.119 408.267 287.839 408.477 288.394 409.047C289.129 409.812 289.099 411.162 289.099 412.467ZM293.806 417.927V410.547H292.726V417.927H293.806ZM293.881 408.447V407.232H292.666V408.447H293.881ZM301.965 418.152V410.547H300.9V411.417C300.3 410.637 299.64 410.457 298.83 410.457C298.08 410.457 297.42 410.712 297.03 411.102C296.295 411.837 296.13 412.977 296.13 414.177C296.13 415.377 296.295 416.517 297.03 417.252C297.42 417.642 298.065 417.912 298.815 417.912C299.61 417.912 300.285 417.717 300.885 416.952V418.107C300.885 419.367 300.285 420.372 298.86 420.372C298.005 420.372 297.63 420.117 297.09 419.637L296.385 420.327C297.165 421.032 297.78 421.317 298.89 421.317C300.825 421.317 301.965 419.982 301.965 418.152ZM300.885 414.177C300.885 415.557 300.66 416.937 299.055 416.937C297.45 416.937 297.21 415.557 297.21 414.177C297.21 412.797 297.45 411.417 299.055 411.417C300.66 411.417 300.885 412.797 300.885 414.177ZM305.745 417.927V410.547H304.665V417.927H305.745ZM305.82 408.447V407.232H304.605V408.447H305.82ZM311.294 417.927V416.997H310.724C310.034 416.997 309.719 416.592 309.719 415.917V411.417H311.294V410.592H309.719V408.282H308.639V410.592H307.709V411.417H308.639V415.947C308.639 417.042 309.269 417.927 310.529 417.927H311.294ZM318.587 417.927V412.917C318.587 411.312 317.612 410.457 315.632 410.457C314.432 410.457 313.682 410.697 313.022 411.552L313.757 412.227C314.192 411.612 314.672 411.387 315.617 411.387C316.967 411.387 317.507 411.927 317.507 413.007V413.712H315.287C313.637 413.712 312.737 414.552 312.737 415.842C312.737 416.427 312.932 416.982 313.292 417.342C313.757 417.822 314.357 418.017 315.377 418.017C316.367 418.017 316.907 417.822 317.507 417.222V417.927H318.587ZM317.507 415.317C317.507 415.932 317.387 416.352 317.132 416.592C316.667 417.042 316.112 417.087 315.482 417.087C314.312 417.087 313.787 416.682 313.787 415.827C313.787 414.972 314.327 414.522 315.437 414.522H317.507V415.317ZM323.843 417.927V416.997H323.258C322.508 416.997 322.268 416.637 322.268 415.917V407.247H321.188V415.962C321.188 417.087 321.773 417.927 323.063 417.927H323.843ZM273.546 432.987C273.546 432.102 273.231 431.367 272.646 430.872C272.196 430.482 271.701 430.272 270.696 430.122L269.526 429.942C268.971 429.852 268.416 429.642 268.086 429.357C267.756 429.072 267.606 428.652 267.606 428.127C267.606 426.942 268.431 426.147 269.856 426.147C270.981 426.147 271.686 426.462 272.346 427.062L273.081 426.327C272.166 425.502 271.266 425.157 269.901 425.157C267.786 425.157 266.481 426.357 266.481 428.172C266.481 429.027 266.751 429.687 267.291 430.167C267.756 430.572 268.416 430.842 269.256 430.977L270.501 431.172C271.281 431.292 271.551 431.382 271.896 431.682C272.241 431.982 272.406 432.462 272.406 433.017C272.406 434.262 271.446 434.997 269.886 434.997C268.686 434.997 267.861 434.712 266.976 433.827L266.196 434.607C267.201 435.612 268.251 436.017 269.856 436.017C272.076 436.017 273.546 434.862 273.546 432.987ZM281.389 432.522V432.027C281.389 429.837 280.264 428.457 278.359 428.457C276.484 428.457 275.329 429.852 275.329 432.237C275.329 434.847 276.604 436.017 278.554 436.017C279.814 436.017 280.504 435.627 281.254 434.877L280.519 434.232C279.934 434.817 279.439 435.072 278.584 435.072C277.174 435.072 276.409 434.142 276.409 432.522H281.389ZM280.309 431.712H276.409C276.439 431.112 276.469 430.887 276.634 430.482C276.919 429.807 277.579 429.372 278.359 429.372C279.139 429.372 279.799 429.807 280.084 430.482C280.249 430.887 280.279 431.112 280.309 431.712ZM288.953 435.927V430.917C288.953 429.312 287.978 428.457 285.998 428.457C284.798 428.457 284.048 428.697 283.388 429.552L284.123 430.227C284.558 429.612 285.038 429.387 285.983 429.387C287.333 429.387 287.873 429.927 287.873 431.007V431.712H285.653C284.003 431.712 283.103 432.552 283.103 433.842C283.103 434.427 283.298 434.982 283.658 435.342C284.123 435.822 284.723 436.017 285.743 436.017C286.733 436.017 287.273 435.822 287.873 435.222V435.927H288.953ZM287.873 433.317C287.873 433.932 287.753 434.352 287.498 434.592C287.033 435.042 286.478 435.087 285.848 435.087C284.678 435.087 284.153 434.682 284.153 433.827C284.153 432.972 284.693 432.522 285.803 432.522H287.873V433.317ZM296.504 429.147C295.979 428.622 295.439 428.457 294.734 428.457C293.879 428.457 293.069 428.832 292.664 429.447V428.547H291.584V435.927H292.664V431.397C292.664 430.272 293.354 429.417 294.434 429.417C295.004 429.417 295.304 429.552 295.709 429.957L296.504 429.147ZM302.68 434.922L301.945 434.217C301.39 434.832 300.955 435.057 300.25 435.057C299.53 435.057 298.93 434.772 298.54 434.217C298.195 433.737 298.06 433.167 298.06 432.237C298.06 431.307 298.195 430.737 298.54 430.257C298.93 429.702 299.53 429.417 300.25 429.417C300.955 429.417 301.39 429.627 301.945 430.242L302.68 429.552C301.915 428.727 301.27 428.457 300.25 428.457C298.39 428.457 296.98 429.717 296.98 432.237C296.98 434.757 298.39 436.017 300.25 436.017C301.27 436.017 301.915 435.747 302.68 434.922ZM310.543 435.927V431.187C310.543 429.522 309.553 428.457 307.888 428.457C307.063 428.457 306.358 428.742 305.818 429.357V425.247H304.738V435.927H305.818V431.367C305.818 430.092 306.553 429.417 307.663 429.417C308.773 429.417 309.463 430.077 309.463 431.367V435.927H310.543Z" fill="white"/>
<path d="M285.337 342.389C285.337 344.969 283.291 347.027 280.809 347.027C278.327 347.027 276.281 344.969 276.281 342.389C276.281 339.808 278.327 337.75 280.809 337.75C283.291 337.75 285.337 339.808 285.337 342.389Z" fill="#56504C" stroke="#FF6D65" stroke-width="2"/>
<path d="M289.101 356.484C289.101 351.813 285.388 348.027 280.809 348.027C276.23 348.027 272.517 351.813 272.517 356.484" stroke="#FF6D65" stroke-width="2"/>
<path d="M301.92 342.389C301.92 344.969 299.874 347.027 297.392 347.027C294.91 347.027 292.864 344.969 292.864 342.389C292.864 339.808 294.91 337.75 297.392 337.75C299.874 337.75 301.92 339.808 301.92 342.389Z" fill="#56504C" stroke="#FF6D65" stroke-width="2"/>
<path d="M305.684 356.484C305.684 351.813 301.971 348.027 297.392 348.027C292.813 348.027 289.1 351.813 289.1 356.484" stroke="#FF6D65" stroke-width="2"/>
<path d="M293.628 352.255C293.628 354.835 291.583 356.893 289.1 356.893C286.618 356.893 284.573 354.835 284.573 352.255C284.573 349.675 286.618 347.617 289.1 347.617C291.583 347.617 293.628 349.675 293.628 352.255Z" fill="#56504C" stroke="#FF6D65" stroke-width="2"/>
<path d="M297.392 366.35C297.392 361.68 293.68 357.893 289.101 357.893C284.521 357.893 280.809 361.68 280.809 366.35" stroke="#FF6D65" stroke-width="2"/>
<circle cx="86.6885" cy="385.927" r="73.5" fill="#56504C" stroke="#FF6D65"/>
<path d="M73.9578 399.988C73.9578 399.103 73.6428 398.368 73.0578 397.873C72.6078 397.483 72.1128 397.273 71.1078 397.123L69.9378 396.943C69.3828 396.853 68.8278 396.643 68.4978 396.358C68.1678 396.073 68.0178 395.653 68.0178 395.128C68.0178 393.943 68.8428 393.148 70.2678 393.148C71.3928 393.148 72.0978 393.463 72.7578 394.063L73.4928 393.328C72.5778 392.503 71.6778 392.158 70.3128 392.158C68.1978 392.158 66.8928 393.358 66.8928 395.173C66.8928 396.028 67.1628 396.688 67.7028 397.168C68.1678 397.573 68.8278 397.843 69.6678 397.978L70.9128 398.173C71.6928 398.293 71.9628 398.383 72.3078 398.683C72.6528 398.983 72.8178 399.463 72.8178 400.018C72.8178 401.263 71.8578 401.998 70.2978 401.998C69.0978 401.998 68.2728 401.713 67.3878 400.828L66.6078 401.608C67.6128 402.613 68.6628 403.018 70.2678 403.018C72.4878 403.018 73.9578 401.863 73.9578 399.988ZM81.7862 399.238C81.7862 398.098 81.6362 397.063 80.8862 396.298C80.3762 395.788 79.6712 395.458 78.7712 395.458C77.8712 395.458 77.1662 395.788 76.6562 396.298C75.9062 397.063 75.7562 398.098 75.7562 399.238C75.7562 400.378 75.9062 401.413 76.6562 402.178C77.1662 402.688 77.8712 403.018 78.7712 403.018C79.6712 403.018 80.3762 402.688 80.8862 402.178C81.6362 401.413 81.7862 400.378 81.7862 399.238ZM80.7062 399.238C80.7062 400.063 80.6612 400.978 80.1212 401.518C79.7762 401.863 79.2962 402.058 78.7712 402.058C78.2462 402.058 77.7812 401.863 77.4362 401.518C76.8962 400.978 76.8362 400.063 76.8362 399.238C76.8362 398.413 76.8962 397.498 77.4362 396.958C77.7812 396.613 78.2462 396.418 78.7712 396.418C79.2962 396.418 79.7762 396.613 80.1212 396.958C80.6612 397.498 80.7062 398.413 80.7062 399.238ZM89.3953 401.923L88.6603 401.218C88.1053 401.833 87.6703 402.058 86.9653 402.058C86.2453 402.058 85.6453 401.773 85.2553 401.218C84.9103 400.738 84.7753 400.168 84.7753 399.238C84.7753 398.308 84.9103 397.738 85.2553 397.258C85.6453 396.703 86.2453 396.418 86.9653 396.418C87.6703 396.418 88.1053 396.628 88.6603 397.243L89.3953 396.553C88.6303 395.728 87.9853 395.458 86.9653 395.458C85.1053 395.458 83.6953 396.718 83.6953 399.238C83.6953 401.758 85.1053 403.018 86.9653 403.018C87.9853 403.018 88.6303 402.748 89.3953 401.923ZM92.5338 402.928V395.548H91.4538V402.928H92.5338ZM92.6088 393.448V392.233H91.3938V393.448H92.6088ZM100.513 402.928V397.918C100.513 396.313 99.5377 395.458 97.5577 395.458C96.3577 395.458 95.6077 395.698 94.9477 396.553L95.6827 397.228C96.1177 396.613 96.5977 396.388 97.5427 396.388C98.8927 396.388 99.4327 396.928 99.4327 398.008V398.713H97.2127C95.5627 398.713 94.6627 399.553 94.6627 400.843C94.6627 401.428 94.8577 401.983 95.2177 402.343C95.6827 402.823 96.2827 403.018 97.3027 403.018C98.2927 403.018 98.8327 402.823 99.4327 402.223V402.928H100.513ZM99.4327 400.318C99.4327 400.933 99.3127 401.353 99.0577 401.593C98.5927 402.043 98.0377 402.088 97.4077 402.088C96.2377 402.088 95.7127 401.683 95.7127 400.828C95.7127 399.973 96.2527 399.523 97.3627 399.523H99.4327V400.318ZM105.768 402.928V401.998H105.183C104.433 401.998 104.193 401.638 104.193 400.918V392.248H103.113V400.963C103.113 402.088 103.698 402.928 104.988 402.928H105.768ZM63.6126 420.928V419.908H58.1526L58.1526 410.248H57.0126L57.0126 420.928H63.6126ZM66.4962 420.928V413.548H65.4162V420.928H66.4962ZM66.5712 411.448V410.233H65.3562V411.448H66.5712ZM74.5351 418.768C74.5351 417.388 73.6501 416.893 72.3601 416.773L71.1751 416.668C70.2451 416.593 69.8851 416.218 69.8851 415.588C69.8851 414.838 70.4551 414.373 71.5351 414.373C72.3001 414.373 72.9751 414.553 73.5001 414.958L74.2051 414.253C73.5451 413.713 72.6001 413.458 71.5501 413.458C69.9751 413.458 68.8351 414.268 68.8351 415.618C68.8351 416.833 69.6001 417.478 71.0401 417.598L72.2551 417.703C73.1101 417.778 73.4851 418.138 73.4851 418.783C73.4851 419.653 72.7351 420.088 71.5201 420.088C70.6051 420.088 69.8101 419.848 69.2251 419.233L68.5051 419.953C69.3151 420.733 70.2901 421.018 71.5351 421.018C73.3201 421.018 74.5351 420.193 74.5351 418.768ZM79.3401 420.928V419.998H78.7701C78.0801 419.998 77.7651 419.593 77.7651 418.918V414.418H79.3401V413.593H77.7651V411.283H76.6851V413.593H75.7551V414.418H76.6851V418.948C76.6851 420.043 77.3151 420.928 78.5751 420.928H79.3401ZM87.0233 417.523V417.028C87.0233 414.838 85.8983 413.458 83.9933 413.458C82.1183 413.458 80.9633 414.853 80.9633 417.238C80.9633 419.848 82.2383 421.018 84.1883 421.018C85.4483 421.018 86.1383 420.628 86.8883 419.878L86.1533 419.233C85.5683 419.818 85.0733 420.073 84.2183 420.073C82.8083 420.073 82.0433 419.143 82.0433 417.523H87.0233ZM85.9433 416.713H82.0433C82.0733 416.113 82.1033 415.888 82.2683 415.483C82.5533 414.808 83.2133 414.373 83.9933 414.373C84.7733 414.373 85.4333 414.808 85.7183 415.483C85.8833 415.888 85.9133 416.113 85.9433 416.713ZM95.1274 420.928V416.203C95.1274 415.348 94.8874 414.658 94.3624 414.148C93.9124 413.698 93.2674 413.458 92.4724 413.458C91.6474 413.458 90.9274 413.758 90.4024 414.358V413.548H89.3224V420.928H90.4024V416.383C90.4024 415.093 91.1224 414.418 92.2324 414.418C93.3424 414.418 94.0474 415.078 94.0474 416.383V420.928H95.1274ZM98.8253 420.928V413.548H97.7453V420.928H98.8253ZM98.9003 411.448V410.233H97.6853V411.448H98.9003ZM107.344 420.928V416.203C107.344 415.348 107.104 414.658 106.579 414.148C106.129 413.698 105.484 413.458 104.689 413.458C103.864 413.458 103.144 413.758 102.619 414.358V413.548H101.539V420.928H102.619V416.383C102.619 415.093 103.339 414.418 104.449 414.418C105.559 414.418 106.264 415.078 106.264 416.383V420.928H107.344ZM115.407 421.153V413.548H114.342V414.418C113.742 413.638 113.082 413.458 112.272 413.458C111.522 413.458 110.862 413.713 110.472 414.103C109.737 414.838 109.572 415.978 109.572 417.178C109.572 418.378 109.737 419.518 110.472 420.253C110.862 420.643 111.507 420.913 112.257 420.913C113.052 420.913 113.727 420.718 114.327 419.953V421.108C114.327 422.368 113.727 423.373 112.302 423.373C111.447 423.373 111.072 423.118 110.532 422.638L109.827 423.328C110.607 424.033 111.222 424.318 112.332 424.318C114.267 424.318 115.407 422.983 115.407 421.153ZM114.327 417.178C114.327 418.558 114.102 419.938 112.497 419.938C110.892 419.938 110.652 418.558 110.652 417.178C110.652 415.798 110.892 414.418 112.497 414.418C114.102 414.418 114.327 415.798 114.327 417.178Z" fill="white"/>
<path d="M84.3302 366.647C83.0228 366.647 82.0291 367.737 82.0291 369C82.0291 370.262 83.0228 371.353 84.3302 371.353H86.9324C88.2399 371.353 89.2335 370.262 89.2335 369C89.2335 367.737 88.2399 366.647 86.9324 366.647H84.3302Z" stroke="#FF6D65" stroke-width="2"/>
<circle cx="188" cy="508" r="73.5" fill="#56504C" stroke="#FF6D65"/>
<path d="M157.663 515.341V514.321H150.343V515.341H153.433V525.001H154.573V515.341H157.663ZM163.973 521.596V521.101C163.973 518.911 162.848 517.531 160.943 517.531C159.068 517.531 157.913 518.926 157.913 521.311C157.913 523.921 159.188 525.091 161.138 525.091C162.398 525.091 163.088 524.701 163.838 523.951L163.103 523.306C162.518 523.891 162.023 524.146 161.168 524.146C159.758 524.146 158.993 523.216 158.993 521.596H163.973ZM162.893 520.786H158.993C159.023 520.186 159.053 519.961 159.218 519.556C159.503 518.881 160.163 518.446 160.943 518.446C161.723 518.446 162.383 518.881 162.668 519.556C162.833 519.961 162.863 520.186 162.893 520.786ZM172.077 525.001V520.276C172.077 519.421 171.837 518.731 171.312 518.221C170.862 517.771 170.217 517.531 169.422 517.531C168.597 517.531 167.877 517.831 167.352 518.431V517.621H166.272V525.001H167.352V520.456C167.352 519.166 168.072 518.491 169.182 518.491C170.292 518.491 170.997 519.151 170.997 520.456V525.001H172.077ZM180.17 525.001V514.321H179.09V518.476C178.49 517.711 177.815 517.531 177.005 517.531C176.255 517.531 175.595 517.786 175.205 518.176C174.455 518.926 174.305 520.156 174.305 521.311C174.305 522.466 174.455 523.696 175.205 524.446C175.595 524.836 176.255 525.091 177.005 525.091C177.815 525.091 178.505 524.896 179.105 524.116V525.001H180.17ZM179.09 521.311C179.09 522.751 178.85 524.131 177.245 524.131C175.64 524.131 175.385 522.751 175.385 521.311C175.385 519.871 175.64 518.491 177.245 518.491C178.85 518.491 179.09 519.871 179.09 521.311ZM188.524 521.596V521.101C188.524 518.911 187.399 517.531 185.494 517.531C183.619 517.531 182.464 518.926 182.464 521.311C182.464 523.921 183.739 525.091 185.689 525.091C186.949 525.091 187.639 524.701 188.389 523.951L187.654 523.306C187.069 523.891 186.574 524.146 185.719 524.146C184.309 524.146 183.544 523.216 183.544 521.596H188.524ZM187.444 520.786H183.544C183.574 520.186 183.604 519.961 183.769 519.556C184.054 518.881 184.714 518.446 185.494 518.446C186.274 518.446 186.934 518.881 187.219 519.556C187.384 519.961 187.414 520.186 187.444 520.786ZM187.924 516.091L186.049 513.796H185.029L183.154 516.091H184.189L185.539 514.531L186.889 516.091H187.924ZM196.628 525.001V520.276C196.628 519.421 196.388 518.731 195.863 518.221C195.413 517.771 194.768 517.531 193.973 517.531C193.148 517.531 192.428 517.831 191.903 518.431V517.621H190.823V525.001H191.903V520.456C191.903 519.166 192.623 518.491 193.733 518.491C194.843 518.491 195.548 519.151 195.548 520.456V525.001H196.628ZM204.541 523.996L203.806 523.291C203.251 523.906 202.816 524.131 202.111 524.131C201.391 524.131 200.791 523.846 200.401 523.291C200.056 522.811 199.921 522.241 199.921 521.311C199.921 520.381 200.056 519.811 200.401 519.331C200.791 518.776 201.391 518.491 202.111 518.491C202.816 518.491 203.251 518.701 203.806 519.316L204.541 518.626C203.776 517.801 203.131 517.531 202.111 517.531C200.251 517.531 198.841 518.791 198.841 521.311C198.841 523.831 200.251 525.091 202.111 525.091C203.131 525.091 203.776 524.821 204.541 523.996ZM207.68 525.001V517.621H206.6V525.001H207.68ZM207.755 515.521V514.306H206.54V515.521H207.755ZM215.658 525.001V519.991C215.658 518.386 214.683 517.531 212.703 517.531C211.503 517.531 210.753 517.771 210.093 518.626L210.828 519.301C211.263 518.686 211.743 518.461 212.688 518.461C214.038 518.461 214.578 519.001 214.578 520.081V520.786H212.358C210.708 520.786 209.808 521.626 209.808 522.916C209.808 523.501 210.003 524.056 210.363 524.416C210.828 524.896 211.428 525.091 212.448 525.091C213.438 525.091 213.978 524.896 214.578 524.296V525.001H215.658ZM214.578 522.391C214.578 523.006 214.458 523.426 214.203 523.666C213.738 524.116 213.183 524.161 212.553 524.161C211.383 524.161 210.858 523.756 210.858 522.901C210.858 522.046 211.398 521.596 212.508 521.596H214.578V522.391ZM223.614 522.841C223.614 521.461 222.729 520.966 221.439 520.846L220.254 520.741C219.324 520.666 218.964 520.291 218.964 519.661C218.964 518.911 219.534 518.446 220.614 518.446C221.379 518.446 222.054 518.626 222.579 519.031L223.284 518.326C222.624 517.786 221.679 517.531 220.629 517.531C219.054 517.531 217.914 518.341 217.914 519.691C217.914 520.906 218.679 521.551 220.119 521.671L221.334 521.776C222.189 521.851 222.564 522.211 222.564 522.856C222.564 523.726 221.814 524.161 220.599 524.161C219.684 524.161 218.889 523.921 218.304 523.306L217.584 524.026C218.394 524.806 219.369 525.091 220.614 525.091C222.399 525.091 223.614 524.266 223.614 522.841Z" fill="white"/>
<path d="M174 488.538V473.462C174 469.893 176.893 467 180.462 467H195.538C199.107 467 202 469.893 202 473.462V488.538C202 492.107 199.107 495 195.538 495H180.462C176.893 495 174 492.107 174 488.538ZM174 488.538L182.615 479.923L188 483.154L191.769 479.385L195.538 475.615M189.077 475.615H195.538M195.538 475.615V482.077" stroke="#FF6D65" stroke-width="2"/>
</svg>


