<svg width="800" height="800" viewBox="0 0 800 800" fill="none" xmlns="http://www.w3.org/2000/svg">
<path d="M666.667 1.30986e-05C740.305 2.27188e-05 800 59.6954 800 133.333C800 206.971 740.305 266.667 666.667 266.667L533.333 266.667L533.333 133.333C533.333 59.6954 593.029 3.47835e-06 666.667 1.30986e-05Z" fill="#F0EEED"/>
<path d="M666.666 533.334C593.028 533.334 533.333 473.638 533.333 400C533.333 326.362 593.028 266.667 666.666 266.667L800 266.667L800 400C800 473.638 740.304 533.334 666.666 533.334Z" fill="#F0EEED"/>
<path opacity="0.2" d="M266.667 400C266.667 326.362 326.362 266.667 400 266.667C473.638 266.667 533.334 326.362 533.334 400V533.334H400C326.362 533.334 266.667 473.638 266.667 400Z" fill="#FF6D65"/>
<path d="M266.666 666.667C266.666 740.305 326.362 800 400 800C473.638 800 533.333 740.305 533.333 666.667V533.333H400C326.362 533.333 266.666 593.029 266.666 666.667Z" fill="#FF6D65"/>
<path d="M133.333 266.667C59.6954 266.667 -2.59958e-06 326.362 -5.80633e-06 400C-9.01308e-06 473.638 59.6953 533.333 133.333 533.333L266.667 533.333L266.667 400C266.667 326.362 206.971 266.667 133.333 266.667Z" fill="#F0EEED"/>
</svg>
