<svg width="321" height="192" viewBox="0 0 321 192" fill="none" xmlns="http://www.w3.org/2000/svg">
<path d="M96.5 192C114.173 192 128.5 177.673 128.5 160C128.5 142.327 114.173 128 96.5 128L64.5 128L64.5 160C64.5 177.673 78.8269 192 96.5 192Z" fill="#FF6D65"/>
<path opacity="0.2" d="M32.5 64C14.8269 64 0.500001 78.3269 0.500001 96C0.500002 113.673 14.8269 128 32.5 128L64.5 128L64.5 96C64.5 78.3269 50.1731 64 32.5 64Z" fill="#FF6D65"/>
<path d="M64.5 96C64.5 113.673 78.8269 128 96.5 128C114.173 128 128.5 113.673 128.5 96L128.5 64H96.5C78.8269 64 64.5 78.3269 64.5 96Z" fill="#F0EEED"/>
<path d="M128.5 96C128.5 113.673 142.827 128 160.5 128C178.173 128 192.5 113.673 192.5 96L192.5 64H160.5C142.827 64 128.5 78.3269 128.5 96Z" fill="#F0EEED"/>
<path d="M224.5 1.39876e-06C242.173 6.26248e-07 256.5 14.3269 256.5 32C256.5 49.6731 242.173 64 224.5 64L192.5 64L192.5 32C192.5 14.3269 206.827 2.17128e-06 224.5 1.39876e-06Z" fill="#F0EEED"/>
<path d="M288.5 1.39876e-06C306.173 6.26248e-07 320.5 14.3269 320.5 32C320.5 49.6731 306.173 64 288.5 64L256.5 64L256.5 32C256.5 14.3269 270.827 2.17128e-06 288.5 1.39876e-06Z" fill="#F0EEED"/>
<path d="M320.5 96C320.5 113.673 306.173 128 288.5 128C270.827 128 256.5 113.673 256.5 96L256.5 64L288.5 64C306.173 64 320.5 78.3269 320.5 96Z" fill="#F0EEED"/>
</svg>
