<svg width="34" height="34" viewBox="0 0 37 38" fill="none" xmlns="http://www.w3.org/2000/svg">
<path fill-rule="evenodd" clip-rule="evenodd" d="M10.8026 5.50409C8.98827 7.39094 7.92144 10.1676 7.92144 13.7026V27.234C7.92144 28.4963 6.9278 29.5871 5.62034 29.5871H4.31924C2.2932 29.5871 0.717041 27.8905 0.717041 25.8809V19.1152C0.717041 17.1056 2.2932 15.4089 4.31924 15.4089H5.92144V13.7026C5.92144 9.76436 7.11666 6.45187 9.36088 4.11788C11.6093 1.77956 14.814 0.524292 18.6313 0.524292C22.4487 0.524292 25.6534 1.77956 27.9018 4.11788C30.146 6.45187 31.3412 9.76436 31.3412 13.7026V15.4089H32.9434C34.9695 15.4089 36.5456 17.1056 36.5456 19.1152V25.8809C36.5456 27.8905 34.9695 29.5871 32.9434 29.5871H31.2658C30.8031 32.6278 28.2644 34.9997 25.1368 34.9997H23.0821C22.6709 36.3283 21.4615 37.3529 19.9324 37.3529H17.3302C15.4339 37.3529 14.0291 35.777 14.0291 33.9997C14.0291 32.2225 15.4339 30.6466 17.3302 30.6466H19.9324C21.4615 30.6466 22.6709 31.6712 23.0821 32.9997H25.1368C27.4222 32.9997 29.3412 31.0615 29.3412 28.5871V13.7026C29.3412 10.1676 28.2744 7.39094 26.4601 5.50409C24.65 3.62156 21.9997 2.52429 18.6313 2.52429C15.2629 2.52429 12.6127 3.62156 10.8026 5.50409ZM31.3412 27.5871H32.9434C33.7917 27.5871 34.5456 26.8605 34.5456 25.8809V19.1152C34.5456 18.1355 33.7917 17.4089 32.9434 17.4089H31.3412V27.5871ZM5.92144 17.4089H4.31924C3.47097 17.4089 2.71704 18.1355 2.71704 19.1152V25.8809C2.71704 26.8605 3.47097 27.5871 4.31924 27.5871H5.62034C5.75003 27.5871 5.92144 27.4664 5.92144 27.234V17.4089ZM17.3302 32.6466C16.6117 32.6466 16.0291 33.2524 16.0291 33.9997C16.0291 34.747 16.6117 35.3529 17.3302 35.3529H19.9324C20.651 35.3529 21.2335 34.747 21.2335 33.9997C21.2335 33.2524 20.651 32.6466 19.9324 32.6466H17.3302Z" fill="#FF6D65"/>
</svg>
