<svg width="30" height="30" viewBox="0 0 30 30" fill="none" xmlns="http://www.w3.org/2000/svg">
<path fill-rule="evenodd" clip-rule="evenodd" d="M0 7.46154C0 3.34064 3.34065 0 7.46154 0H22.5385C26.6594 0 30 3.34065 30 7.46154V22.5385C30 26.6594 26.6594 30 22.5385 30H7.46154C3.34064 30 0 26.6594 0 22.5385V7.46154ZM7.46154 2C4.44521 2 2 4.44521 2 7.46154V20.1242L9.46037 12.6639L14.845 15.8946L20.1242 10.6154H16.0769V8.61539H23.5385V16.0769H21.5385V12.0296L15.155 18.413L9.7704 15.1823L2.01441 22.9383C2.21913 25.7679 4.57967 28 7.46154 28H22.5385C25.5548 28 28 25.5548 28 22.5385V7.46154C28 4.44521 25.5548 2 22.5385 2H7.46154Z" fill="#FF6D65"/>
</svg>
