<svg width="40" height="40" viewBox="0 0 40 40" fill="none" xmlns="http://www.w3.org/2000/svg">
<path d="M34.0842 12.3247V12.1835L34.0328 12.052L32.1953 7.34448L32.009 6.86719H31.4967H9.3375H8.82514L8.63884 7.34448L6.80134 12.052L6.75 12.1835V12.3247V16.3497C6.75 18.0043 8.09531 19.348 9.74917 19.348C10.9088 19.348 11.9167 18.6879 12.4158 17.7233C12.915 18.6879 13.9228 19.348 15.0825 19.348C16.2425 19.348 17.2513 18.688 17.7507 17.7231C18.2498 18.6879 19.2578 19.348 20.4175 19.348C21.5767 19.348 22.5843 18.6879 23.0833 17.7233C23.5825 18.6879 24.5903 19.348 25.75 19.348C26.91 19.348 27.9181 18.6876 28.4171 17.7225C28.9161 18.6876 29.9242 19.348 31.0842 19.348C32.7387 19.348 34.0842 18.0044 34.0842 16.3497V12.3247Z" stroke="black" stroke-width="1.5"/>
<path d="M10 21.25V31.25H31.25V21.25" stroke="black" stroke-width="1.5" stroke-linejoin="round"/>
</svg>
