<svg width="40" height="40" viewBox="0 0 40 40" fill="none" xmlns="http://www.w3.org/2000/svg">
<path d="M24.9987 10H8.33203V25H24.9987V10Z" stroke="black" stroke-width="1.5" stroke-linecap="round" stroke-linejoin="round"/>
<path d="M25 16.668H29.7619L33.3333 19.793V25.0013H25V16.668Z" stroke="black" stroke-width="1.5" stroke-linecap="round" stroke-linejoin="round"/>
<path d="M13.3333 31.6667C15.1743 31.6667 16.6667 30.1743 16.6667 28.3333C16.6667 26.4924 15.1743 25 13.3333 25C11.4924 25 10 26.4924 10 28.3333C10 30.1743 11.4924 31.6667 13.3333 31.6667Z" stroke="black" stroke-width="1.5" stroke-linecap="round" stroke-linejoin="round"/>
<path d="M28.3333 31.6667C30.1743 31.6667 31.6667 30.1743 31.6667 28.3333C31.6667 26.4924 30.1743 25 28.3333 25C26.4924 25 25 26.4924 25 28.3333C25 30.1743 26.4924 31.6667 28.3333 31.6667Z" stroke="black" stroke-width="1.5" stroke-linecap="round" stroke-linejoin="round"/>
</svg>
