<svg width="83" height="35" viewBox="0 0 83 35" fill="none" xmlns="http://www.w3.org/2000/svg">
<path d="M50.5567 5.65324C49.8743 5.65324 47.6881 6.7454 41.4463 16.0635C45.2596 13.2208 48.4742 9.75515 49.9747 7.4086C50.6436 6.36235 50.7576 5.84318 50.7449 5.69044C50.7026 5.66986 50.6404 5.65324 50.5567 5.65324ZM56.3585 13.8863C55.9806 13.6062 53.7913 15.3631 53.3815 17.0575C53.2619 17.5506 53.3041 17.9985 53.5075 18.3998C55.173 17.2554 57.3152 14.5947 56.3585 13.8863ZM7.9232 18.5889C7.06134 18.5889 6.11418 18.6515 5.06337 18.7955C2.70742 19.1034 1.51071 20.1282 1.58326 20.7194C1.63668 21.1547 2.654 21.7324 5.16064 21.4285C7.16419 21.1848 9.1518 20.2533 11.0772 18.911C10.1604 18.7116 9.1239 18.5889 7.9232 18.5889ZM30.6456 33.2357C30.6456 33.2357 30.6495 33.2381 30.6591 33.2428C31.0865 33.443 31.6828 33.1019 32.1086 32.7806C35.0928 30.5282 38.8958 22.7811 38.6032 20.4076C37.4997 22.0767 36.3732 23.7023 35.3527 25.1751C33.841 27.3562 32.5359 29.2414 31.6629 30.7245C30.4167 32.8416 30.6344 33.2191 30.6456 33.2357ZM30.9422 34.2558C30.7038 34.2558 30.4781 34.2067 30.2653 34.107C29.995 33.9804 29.81 33.7572 29.7311 33.4636C29.3946 32.1981 31.1638 29.5643 34.5833 24.629C35.7162 22.9932 36.9815 21.1674 38.1982 19.3083C35.9841 20.5564 33.5118 21.5789 31.0466 21.8678C28.705 22.197 27.1918 21.8235 26.5579 20.7566C26.2892 20.3016 26.2111 19.7745 26.2526 19.2324C24.7585 20.8112 22.6298 22.3181 20.045 22.121C18.3332 22.1155 16.9739 21.4135 15.5348 20.6688C14.5533 20.1615 13.5169 19.6265 12.2556 19.226C10.016 20.8959 7.66887 22.0815 5.27305 22.3719C1.2213 22.865 0.711042 21.3209 0.652043 20.8366C0.510128 19.6795 1.96516 18.2399 4.94059 17.8513C7.99575 17.4343 10.26 17.6772 12.0674 18.1814C15.943 15.1795 19.5299 10.6772 22.4352 7.03031C24.9506 3.87256 26.7676 1.59169 28.0361 1.18728C29.126 0.83985 30.0341 0.922157 30.7365 1.43341C31.9762 2.33404 32.028 4.22949 32.0288 4.30942C32.0288 4.30942 31.0825 4.10365 31.0267 3.79816C30.9358 3.30432 30.7157 2.5873 30.1855 2.20346C29.7375 1.87898 29.1092 1.84257 28.3183 2.09504C27.3209 2.41239 25.3963 4.82938 23.1671 7.62703C20.3559 11.156 16.9197 15.4692 13.1485 18.5288C14.2217 18.9213 15.1274 19.3899 15.9621 19.8204C17.3606 20.5437 18.5692 21.1682 20.0633 21.1682L20.0992 21.169C24.489 21.169 27.7666 15.5341 27.8543 15.413C27.8543 15.413 28.5519 16.0999 28.4172 16.3318C28.3749 16.4038 28.3263 16.4854 28.2729 16.5732C28.1708 16.7402 28.0488 16.9325 27.9085 17.1414C27.3775 18.1679 26.9063 19.4927 27.364 20.2644C27.7786 20.9632 29.0111 21.1911 30.9278 20.9212C33.688 20.5968 36.6196 19.2719 39.3606 17.5079C47.5956 4.84125 50.0664 4.10602 51.2942 4.91248C51.4943 5.04385 51.8037 5.37466 51.6331 6.11306C51.2209 7.89216 48.1434 11.6348 44.4735 14.8194C43.3733 15.7755 41.8393 17.0077 40.0502 18.179C39.8716 18.4536 39.6907 18.7353 39.5057 19.0218C39.4443 19.1176 39.3829 19.2126 39.3223 19.3091C40.6203 19.7215 43.8484 20.6593 46.391 20.6593C48.3252 20.6593 50.7417 20.0214 52.7094 18.8992C52.3123 18.1734 52.3355 17.4493 52.4471 16.927C52.8824 14.8867 55.4233 12.5322 56.5985 12.9501C59.0326 13.8135 56.4749 17.6187 54.1158 19.1303C54.6189 19.5418 55.3587 19.8837 56.3306 20.152C59.7804 21.1056 64.2866 20.114 68.6445 19.1548C71.1886 18.5961 73.8188 18.016 76.1541 17.8593C79.576 17.6297 81.4623 19.1936 82.0834 20.7353C82.7037 22.2738 82.2485 24.0109 80.9242 25.1609C80.9242 25.1609 80.6483 24.1186 80.7839 23.9437C81.4352 23.1071 81.6035 22.0633 81.2136 21.0946C80.7161 19.8607 79.1415 18.6103 76.2163 18.8082C73.9504 18.9601 71.4701 19.5062 68.8438 20.0839C64.3759 21.0669 59.7541 22.083 56.0834 21.0684C54.7384 20.6973 53.859 20.1963 53.297 19.6558C51.1635 20.911 48.542 21.6106 46.3902 21.6106C43.9824 21.6106 41.0923 20.8461 39.5416 20.3744C39.7967 23.3034 35.6485 31.2943 32.6683 33.5443C32.0408 34.0176 31.4628 34.2558 30.9422 34.2558Z" fill="black"/>
</svg>
